<?xml version="1.0" standalone="no"?>
<!DOCTYPE svg PUBLIC "-//W3C//DTD SVG 1.1//EN" "http://www.w3.org/Graphics/SVG/1.1/DTD/svg11.dtd" >
<svg xmlns="http://www.w3.org/2000/svg">
<metadata>Generated by IcoMoon</metadata>
<defs>
<font id="vcattributes" horiz-adv-x="1024">
<font-face units-per-em="1024" ascent="960" descent="-64" />
<missing-glyph horiz-adv-x="1024" />
<glyph unicode="&#x20;" horiz-adv-x="512" d="" />
<glyph unicode="&#xe900;" d="M955.733-51.2h68.267v204.8h-136.533v-68.267h-68.267v-136.533h136.533zM546.133 17.067v-68.267h204.8v136.533h-68.267v68.267h-136.533v-136.533zM1024 904.533v-136.533h-136.533v68.267h-68.267v136.533h204.8v-68.267zM614.4 972.8h136.533v-136.533h-68.267v-68.267h-136.533v204.8h68.267zM887.467 699.733h136.533v-204.8h-136.533v204.8zM887.467 426.667h136.533v-204.8h-136.533v204.8zM546.133 699.733h136.533v-204.8h-136.533v204.8zM546.133 426.667h136.533v-204.8h-136.533v204.8z" />
<glyph unicode="&#xe901;" d="M136.533 836.267v-750.933h204.8v750.933h-204.8zM0 972.8h477.867v-1024h-477.867v1024z" />
<glyph unicode="&#xe902;" d="M68.267 972.8h-68.267v-204.8h136.533v68.267h68.267v136.533h-136.533zM477.867 904.533v68.267h-204.8v-136.533h68.267v-68.267h136.533v136.533zM0 17.067v136.533h136.533v-68.267h68.267v-136.533h-204.8v68.267zM409.6-51.2h-136.533v136.533h68.267v68.267h136.533v-204.8h-68.267zM136.533 221.867h-136.533v204.8h136.533v-204.8zM136.533 494.933h-136.533v204.8h136.533v-204.8zM477.867 221.867h-136.533v204.8h136.533v-204.8zM477.867 494.933h-136.533v204.8h136.533v-204.8z" />
<glyph unicode="&#xe903;" d="M887.467 85.333v750.933h-204.8v-750.933h204.8zM1024-51.2h-477.867v1024h477.867v-1024z" />
<glyph unicode="&#xe904;" d="M1024 904.533v68.267h-204.8v-136.533h68.267v-68.267h136.533v136.533zM955.733 494.933h68.267v204.8h-136.533v-68.267h-68.267v-136.533h136.533zM68.267 972.8h136.533v-136.533h-68.267v-68.267h-136.533v204.8h68.267zM0 563.2v136.533h136.533v-68.267h68.267v-136.533h-204.8v68.267zM273.067 836.267v136.533h204.8v-136.533h-204.8zM546.133 836.267v136.533h204.8v-136.533h-204.8zM273.067 494.933v136.533h204.8v-136.533h-204.8zM546.133 494.933v136.533h204.8v-136.533h-204.8z" />
<glyph unicode="&#xe905;" d="M136.533 85.333h750.933v204.8h-750.933v-204.8zM0-51.2v477.867h1024v-477.867h-1024z" />
<glyph unicode="&#xe906;" d="M0 17.067v-68.267h204.8v136.533h-68.267v68.267h-136.533v-136.533zM68.267 426.667h-68.267v-204.8h136.533v68.267h68.267v136.533h-136.533zM955.733-51.2h-136.533v136.533h68.267v68.267h136.533v-204.8h-68.267zM1024 358.4v-136.533h-136.533v68.267h-68.267v136.533h204.8v-68.267zM750.933 85.333v-136.533h-204.8v136.533h204.8zM477.867 85.333v-136.533h-204.8v136.533h204.8zM750.933 426.667v-136.533h-204.8v136.533h204.8zM477.867 426.667v-136.533h-204.8v136.533h204.8z" />
<glyph unicode="&#xe907;" d="M887.467 836.267h-750.933v-204.8h750.933v204.8zM1024 972.8v-477.867h-1024v477.867h1024z" />
<glyph unicode="&#xe908;" glyph-name="icon-attribute-alignment-center" d="M219.429 972.8h585.143v-146.286h-585.143v146.286zM0 680.229h1024v-146.286h-1024v146.286zM219.429 387.657h585.143v-146.286h-585.143v146.286zM0 95.086h1024v-146.286h-1024v146.286z" />
<glyph unicode="&#xe909;" glyph-name="icon-attribute-alignment-left" d="M0 972.8h658.286v-146.286h-658.286v146.286zM0 680.229h1024v-146.286h-1024v146.286zM0 387.657h658.286v-146.286h-658.286v146.286zM0 95.086h1024v-146.286h-1024v146.286z" />
<glyph unicode="&#xe90a;" glyph-name="icon-attribute-alignment-right" d="M365.714 972.8h658.286v-146.286h-658.286v146.286zM0 680.229h1024v-146.286h-1024v146.286zM365.714 387.657h658.286v-146.286h-658.286v146.286zM0 95.086h1024v-146.286h-1024v146.286z" />
<glyph unicode="&#xe90b;" glyph-name="icon-attribute-row-width-boxed" d="M136.533 836.267v-750.933h750.933v750.933h-750.933zM0 972.8h1024v-1024h-1024v1024z" />
<glyph unicode="&#xe90c;" glyph-name="icon-attribute-row-width-stretched" horiz-adv-x="1570" d="M68.267 972.8h136.533v-136.533h-68.267v-68.267h-136.533v204.8h68.267zM1570.133 904.533v-136.533h-136.533v68.267h-68.267v136.533h204.8v-68.267zM68.267-51.2h136.533v136.533h-68.267v68.267h-136.533v-204.8h68.267zM1570.133 17.067v136.533h-136.533v-68.267h-68.267v-136.533h204.8v68.267zM1433.6 699.733h136.533v-204.8h-136.533v204.8zM1433.6 426.667h136.533v-204.8h-136.533v204.8zM0 699.733h136.533v-204.8h-136.533v204.8zM0 426.667h136.533v-204.8h-136.533v204.8zM819.2 972.8h204.8v-136.533h-204.8v136.533zM1092.267 972.8h204.8v-136.533h-204.8v136.533zM273.067 972.8h204.8v-136.533h-204.8v136.533zM546.133 972.8h204.8v-136.533h-204.8v136.533zM819.2 85.333h204.8v-136.533h-204.8v136.533zM1092.267 85.333h204.8v-136.533h-204.8v136.533zM273.067 85.333h204.8v-136.533h-204.8v136.533zM546.133 85.333h204.8v-136.533h-204.8v136.533z" />
<glyph unicode="&#xe90d;" glyph-name="icon-attribute-row-width-stretched-content" horiz-adv-x="1570" d="M136.533 836.267v-750.933h1297.067v750.933h-1297.067zM0 972.8h1570.133v-1024h-1570.133v1024z" />
<glyph unicode="&#xe90e;" glyph-name="icon-attribute-shape-round" d="M146.286 460.8c0-201.627 163.96-365.714 365.714-365.714 201.627 0 365.714 163.96 365.714 365.714 0 201.627-163.96 365.714-365.714 365.714-201.627 0-365.714-163.96-365.714-365.714zM0 460.8c0 282.77 229.806 512 512 512 282.77 0 512-229.806 512-512 0-282.77-229.806-512-512-512-282.77 0-512 229.806-512 512z" />
<glyph unicode="&#xe90f;" glyph-name="icon-attribute-shape-rounded" d="M146.286 753.126v-584.653c0-40.623 32.783-73.388 73.388-73.388h584.653c40.623 0 73.388 32.783 73.388 73.388v584.653c0 40.623-32.783 73.388-73.388 73.388h-584.653c-40.623 0-73.388-32.783-73.388-73.388zM0 753.126c0 121.322 98.185 219.674 219.674 219.674h584.653c121.322 0 219.674-98.185 219.674-219.674v-584.653c0-121.322-98.185-219.674-219.674-219.674h-584.653c-121.322 0-219.674 98.185-219.674 219.674v584.653z" />
<glyph unicode="&#xe910;" glyph-name="icon-attribute-vertical-alignment-full-height" d="M146.286 826.514v-731.429h146.286v731.429h-146.286zM0 972.8h438.857v-1024h-438.857v1024zM731.429 95.086h146.286v731.429h-146.286v-731.429zM585.143 972.8h438.857v-1024h-438.857v1024z" />
<glyph unicode="&#xe911;" d="M0 972.8h1024v-1024h-1024v1024zM146.286 826.514v-731.429h731.429v731.429h-731.429z" />
<glyph unicode="&#xe912;" d="M292.571 387.657h438.857v-438.857h-438.857v438.857zM438.857 241.371v-146.286h146.286v146.286h-146.286z" />
<glyph unicode="&#xe913;" d="M0 972.8h1024v-1024h-1024v1024zM146.286 826.514v-731.429h731.429v731.429h-731.429z" />
<glyph unicode="&#xe914;" d="M292.571 680.229h438.857v-438.857h-438.857v438.857zM438.857 533.943v-146.286h146.286v146.286h-146.286z" />
<glyph unicode="&#xe915;" d="M0 972.8h1024v-1024h-1024v1024zM146.286 826.514v-731.429h731.429v731.429h-731.429z" />
<glyph unicode="&#xe916;" d="M292.571 972.8h438.857v-438.857h-438.857v438.857zM438.857 826.514v-146.286h146.286v146.286h-146.286z" />
<glyph unicode="&#xe917;" d="M0 972.8h1024v-1024h-1024v1024zM146.286 826.514v-731.429h731.429v731.429h-731.429z" />
<glyph unicode="&#xe918;" d="M0 387.657h438.857v-438.857h-438.857v438.857zM146.286 241.371v-146.286h146.286v146.286h-146.286z" />
<glyph unicode="&#xe919;" d="M0 972.8h1024v-1024h-1024v1024zM146.286 826.514v-731.429h731.429v731.429h-731.429z" />
<glyph unicode="&#xe91a;" d="M0 680.229h438.857v-438.857h-438.857v438.857zM146.286 533.943v-146.286h146.286v146.286h-146.286z" />
<glyph unicode="&#xe91b;" d="M0 972.8h1024v-1024h-1024v1024zM146.286 826.514v-731.429h731.429v731.429h-731.429z" />
<glyph unicode="&#xe91c;" d="M0 972.8h438.857v-438.857h-438.857v438.857zM146.286 826.514v-146.286h146.286v146.286h-146.286z" />
<glyph unicode="&#xe91d;" d="M0 972.8h1024v-1024h-1024v1024zM146.286 826.514v-731.429h731.429v731.429h-731.429z" />
<glyph unicode="&#xe91e;" d="M585.143 387.657h438.857v-438.857h-438.857v438.857zM731.429 241.371v-146.286h146.286v146.286h-146.286z" />
<glyph unicode="&#xe91f;" d="M0 972.8h1024v-1024h-1024v1024zM146.286 826.514v-731.429h731.429v731.429h-731.429z" />
<glyph unicode="&#xe920;" d="M585.143 680.229h438.857v-438.857h-438.857v438.857zM731.429 533.943v-146.286h146.286v146.286h-146.286z" />
<glyph unicode="&#xe921;" d="M0 972.8h1024v-1024h-1024v1024zM146.286 826.514v-731.429h731.429v731.429h-731.429z" />
<glyph unicode="&#xe922;" d="M585.143 972.8h438.857v-438.857h-438.857v438.857zM731.429 826.514v-146.286h146.286v146.286h-146.286z" />
<glyph unicode="&#xe923;" glyph-name="icon-attribute-shape-square" d="M146.286 95.086h731.429v731.429h-731.429v-731.429zM0 972.8h1024v-1024h-1024v1024z" />
<glyph unicode="&#xe924;" glyph-name="icon-attribute-size-l" horiz-adv-x="768" d="M728.75 60.175h-478.5v880.688h-123.75v-992.063h602.25z" />
<glyph unicode="&#xe925;" glyph-name="icon-attribute-size-m" horiz-adv-x="1152" d="M242-51.2v757.625h8.25l312.813-750.75h104.5l312.813 750.75h8.25v-757.625h115.5v992.063h-143.688l-339.625-820.875h-11l-339.625 820.875h-143.688v-992.063z" />
<glyph unicode="&#xe926;" glyph-name="icon-attribute-size-s" horiz-adv-x="796" d="M70.278 292.967c11.611-152.167 140.556-251.167 327.556-251.167 201.667 0 329.389 103.278 329.389 265.222 0 129.556-73.333 200.444-256.056 246.278l-92.278 24.444c-121.611 31.167-169.889 70.889-169.889 139.944 0 89.222 77.611 147.889 194.944 147.889 110 0 184.556-53.778 199.833-144.222h110.611c-9.167 142.389-136.278 243.833-306.778 243.833-186.389 0-311.667-101.444-311.667-251.167 0-125.278 69.056-197.389 228.556-237.722l113.056-29.333c121.611-30.556 176.611-78.222 176.611-153.389 0-87.389-87.389-151.556-205.944-151.556-125.278 0-213.278 58.667-226.722 150.944h-111.222z" />
<glyph unicode="&#xe927;" glyph-name="icon-attribute-size-xs" horiz-adv-x="1707" d="M55 62.578h124.667l235.278 347.722h9.778l231-347.722h132l-298.833 438.778 305.556 443.056h-125.278l-235.889-350.778h-9.778l-232.222 350.778h-132.611l298.222-438.167-301.889-443.667zM1003.19 292.967c11.611-152.167 140.556-251.167 327.556-251.167 201.667 0 329.389 103.278 329.389 265.222 0 129.556-73.333 200.444-256.056 246.278l-92.278 24.444c-121.611 31.167-169.889 70.889-169.889 139.944 0 89.222 77.611 147.889 194.944 147.889 110 0 184.556-53.778 199.833-144.222h110.611c-9.167 142.389-136.278 243.833-306.778 243.833-186.389 0-311.667-101.444-311.667-251.167 0-125.278 69.056-197.389 228.556-237.722l113.056-29.333c121.611-30.556 176.611-78.222 176.611-153.389 0-87.389-87.389-151.556-205.944-151.556-125.278 0-213.278 58.667-226.722 150.944h-111.222z" />
<glyph unicode="&#xe928;" glyph-name="icon-attribute-vertical-alignment-bottom" d="M146.286 826.514v-731.429h146.286v731.429h-146.286zM0 972.8h438.857v-1024h-438.857v1024zM731.429 95.086h146.286v292.571h-146.286v-292.571zM585.143 533.943h438.857v-585.143h-438.857v585.143z" />
<glyph unicode="&#xe929;" glyph-name="icon-attribute-vertical-alignment-middle" d="M146.286 826.514v-731.429h146.286v731.429h-146.286zM0 972.8h438.857v-1024h-438.857v1024zM731.429 314.514h146.286v292.571h-146.286v-292.571zM585.143 753.371h438.857v-585.143h-438.857v585.143z" />
<glyph unicode="&#xe92a;" glyph-name="icon-attribute-vertical-alignment-top" d="M146.286 826.514v-731.429h146.286v731.429h-146.286zM0 972.8h438.857v-1024h-438.857v1024zM731.429 533.943h146.286v292.571h-146.286v-292.571zM585.143 972.8h438.857v-585.143h-438.857v585.143z" />
</font>
</defs>
</svg>
