<?xml version="1.0" standalone="no"?>
<!DOCTYPE svg PUBLIC "-//W3C//DTD SVG 1.1//EN" "http://www.w3.org/Graphics/SVG/1.1/DTD/svg11.dtd" >
<svg xmlns="http://www.w3.org/2000/svg">
<metadata>Generated by IcoMoon</metadata>
<defs>
<font id="vcAttributes" horiz-adv-x="1024">
<font-face units-per-em="1024" ascent="960" descent="-64" />
<missing-glyph horiz-adv-x="1024" />
<glyph unicode="&#x20;" horiz-adv-x="512" d="" />
<glyph unicode="&#xe900;" glyph-name="sandwich-bold" horiz-adv-x="1229" d="M0 960h1228.8v-204.8h-1228.8v204.8zM0 550.4h1228.8v-204.8h-1228.8v204.8zM0 140.8h1228.8v-204.8h-1228.8v204.8z" />
<glyph unicode="&#xe901;" glyph-name="sandwich-regular" horiz-adv-x="1293" d="M0 960h1293.474v-161.684h-1293.474v161.684zM0 528.842h1293.474v-161.684h-1293.474v161.684zM0 97.684h1293.474v-161.684h-1293.474v161.684z" />
<glyph unicode="&#xe902;" glyph-name="sandwich-thin" horiz-adv-x="1365" d="M0 960h1365.333v-113.778h-1365.333v113.778zM0 504.889h1365.333v-113.778h-1365.333v113.778zM0 49.778h1365.333v-113.778h-1365.333v113.778z" />
<glyph unicode="&#xe903;" glyph-name="sandwich-right" horiz-adv-x="1293" d="M0 960h1293.474v-161.684h-1293.474v161.684zM269.474 528.842h1024v-161.684h-1024v161.684zM0 97.684h1293.474v-161.684h-1293.474v161.684z" />
<glyph unicode="&#xe904;" glyph-name="sandwich-left" horiz-adv-x="1293" d="M0 960h754.526v-161.684h-754.526v161.684zM0 528.842h1293.474v-161.684h-1293.474v161.684zM0 97.684h1024v-161.684h-1024z" />
<glyph unicode="&#xe905;" glyph-name="mirror-horizontally-left-path-1" d="M955.733-64h68.267v204.8h-136.533v-68.267h-68.267v-136.533h136.533zM546.133 4.267v-68.267h204.8v136.533h-68.267v68.267h-136.533v-136.533zM1024 891.733v-136.533h-136.533v68.267h-68.267v136.533h204.8v-68.267zM614.4 960h136.533v-136.533h-68.267v-68.267h-136.533v204.8h68.267zM887.467 686.933h136.533v-204.8h-136.533v204.8zM887.467 413.867h136.533v-204.8h-136.533v204.8zM546.133 686.933h136.533v-204.8h-136.533v204.8zM546.133 413.867h136.533v-204.8h-136.533v204.8z" />
<glyph unicode="&#xe906;" glyph-name="mirror-horizontally-left-path-2" d="M136.533 823.467v-750.933h204.8v750.933h-204.8zM0 960h477.867v-1024h-477.867v1024z" />
<glyph unicode="&#xe907;" glyph-name="mirror-horizontally-right-path-1" d="M68.267 960h-68.267v-204.8h136.533v68.267h68.267v136.533h-136.533zM477.867 891.733v68.267h-204.8v-136.533h68.267v-68.267h136.533v136.533zM0 4.267v136.533h136.533v-68.267h68.267v-136.533h-204.8v68.267zM409.6-64h-136.533v136.533h68.267v68.267h136.533v-204.8h-68.267zM136.533 209.067h-136.533v204.8h136.533v-204.8zM136.533 482.133h-136.533v204.8h136.533v-204.8zM477.867 209.067h-136.533v204.8h136.533v-204.8zM477.867 482.133h-136.533v204.8h136.533v-204.8z" />
<glyph unicode="&#xe908;" glyph-name="alignment-center" d="M219.429 960h585.143v-146.286h-585.143v146.286zM0 667.429h1024v-146.286h-1024v146.286zM219.429 374.857h585.143v-146.286h-585.143v146.286zM0 82.286h1024v-146.286h-1024v146.286z" />
<glyph unicode="&#xe909;" glyph-name="alignment-left" d="M0 960h658.286v-146.286h-658.286v146.286zM0 667.429h1024v-146.286h-1024v146.286zM0 374.857h658.286v-146.286h-658.286v146.286zM0 82.286h1024v-146.286h-1024v146.286z" />
<glyph unicode="&#xe90a;" glyph-name="alignment-right" d="M365.714 960h658.286v-146.286h-658.286v146.286zM0 667.429h1024v-146.286h-1024v146.286zM365.714 374.857h658.286v-146.286h-658.286v146.286zM0 82.286h1024v-146.286h-1024v146.286z" />
<glyph unicode="&#xe90b;" glyph-name="row-width-boxed" d="M136.533 823.467v-750.933h750.933v750.933h-750.933zM0 960h1024v-1024h-1024v1024z" />
<glyph unicode="&#xe90c;" glyph-name="row-width-stretched" horiz-adv-x="1570" d="M68.267 960h136.533v-136.533h-68.267v-68.267h-136.533v204.8h68.267zM1570.133 891.733v-136.533h-136.533v68.267h-68.267v136.533h204.8v-68.267zM68.267-64h136.533v136.533h-68.267v68.267h-136.533v-204.8h68.267zM1570.133 4.267v136.533h-136.533v-68.267h-68.267v-136.533h204.8v68.267zM1433.6 686.933h136.533v-204.8h-136.533v204.8zM1433.6 413.867h136.533v-204.8h-136.533v204.8zM0 686.933h136.533v-204.8h-136.533v204.8zM0 413.867h136.533v-204.8h-136.533v204.8zM819.2 960h204.8v-136.533h-204.8v136.533zM1092.267 960h204.8v-136.533h-204.8v136.533zM273.067 960h204.8v-136.533h-204.8v136.533zM546.133 960h204.8v-136.533h-204.8v136.533zM819.2 72.533h204.8v-136.533h-204.8v136.533zM1092.267 72.533h204.8v-136.533h-204.8v136.533zM273.067 72.533h204.8v-136.533h-204.8v136.533zM546.133 72.533h204.8v-136.533h-204.8v136.533z" />
<glyph unicode="&#xe90d;" glyph-name="row-width-stretched-content" horiz-adv-x="1570" d="M136.533 823.467v-750.933h1297.067v750.933h-1297.067zM0 960h1570.133v-1024h-1570.133v1024z" />
<glyph unicode="&#xe90e;" glyph-name="shape-round" d="M146.286 448c0-201.627 163.96-365.714 365.714-365.714 201.627 0 365.714 163.96 365.714 365.714 0 201.627-163.96 365.714-365.714 365.714-201.627 0-365.714-163.96-365.714-365.714zM0 448c0 282.77 229.806 512 512 512 282.77 0 512-229.806 512-512 0-282.77-229.806-512-512-512-282.77 0-512 229.806-512 512z" />
<glyph unicode="&#xe90f;" glyph-name="shape-rounded" d="M146.286 740.326v-584.653c0-40.623 32.783-73.388 73.388-73.388h584.653c40.623 0 73.388 32.783 73.388 73.388v584.653c0 40.623-32.783 73.388-73.388 73.388h-584.653c-40.623 0-73.388-32.783-73.388-73.388zM0 740.326c0 121.322 98.185 219.674 219.674 219.674h584.653c121.322 0 219.674-98.185 219.674-219.674v-584.653c0-121.322-98.185-219.674-219.674-219.674h-584.653c-121.322 0-219.674 98.185-219.674 219.674v584.653z" />
<glyph unicode="&#xe910;" glyph-name="vertical-alignment-full-height" d="M146.286 813.714v-731.429h146.286v731.429h-146.286zM0 960h438.857v-1024h-438.857v1024zM731.429 82.286h146.286v731.429h-146.286v-731.429zM585.143 960h438.857v-1024h-438.857v1024z" />
<glyph unicode="&#xe911;" glyph-name="background-position-full" d="M0 960h1024v-1024h-1024v1024zM146.286 813.714v-731.429h731.429v731.429h-731.429z" />
<glyph unicode="&#xe912;" glyph-name="background-position-center-bottom" d="M292.571 374.857h438.857v-438.857h-438.857v438.857zM438.857 228.571v-146.286h146.286v146.286h-146.286z" />
<glyph unicode="&#xe913;" glyph-name="mirror-horizontally-right-path-2" d="M887.467 72.533v750.933h-204.8v-750.933h204.8zM1024-64h-477.867v1024h477.867v-1024z" />
<glyph unicode="&#xe914;" glyph-name="background-position-center-center" d="M292.571 667.429h438.857v-438.857h-438.857v438.857zM438.857 521.143v-146.286h146.286v146.286h-146.286z" />
<glyph unicode="&#xe915;" glyph-name="mirror-vertically-down-path-1" d="M1024 891.733v68.267h-204.8v-136.533h68.267v-68.267h136.533v136.533zM955.733 482.133h68.267v204.8h-136.533v-68.267h-68.267v-136.533h136.533zM68.267 960h136.533v-136.533h-68.267v-68.267h-136.533v204.8h68.267zM0 550.4v136.533h136.533v-68.267h68.267v-136.533h-204.8v68.267zM273.067 823.467v136.533h204.8v-136.533h-204.8zM546.133 823.467v136.533h204.8v-136.533h-204.8zM273.067 482.133v136.533h204.8v-136.533h-204.8zM546.133 482.133v136.533h204.8v-136.533h-204.8z" />
<glyph unicode="&#xe916;" glyph-name="background-position-center-top" d="M292.571 960h438.857v-438.857h-438.857v438.857zM438.857 813.714v-146.286h146.286v146.286h-146.286z" />
<glyph unicode="&#xe917;" glyph-name="mirror-vertically-down-path-2" d="M136.533 72.533h750.933v204.8h-750.933v-204.8zM0-64v477.867h1024v-477.867h-1024z" />
<glyph unicode="&#xe918;" glyph-name="background-position-left-bottom" d="M0 374.857h438.857v-438.857h-438.857v438.857zM146.286 228.571v-146.286h146.286v146.286h-146.286z" />
<glyph unicode="&#xe919;" glyph-name="mirror-vertically-up-path-1" d="M0 4.267v-68.267h204.8v136.533h-68.267v68.267h-136.533v-136.533zM68.267 413.867h-68.267v-204.8h136.533v68.267h68.267v136.533h-136.533zM955.733-64h-136.533v136.533h68.267v68.267h136.533v-204.8h-68.267zM1024 345.6v-136.533h-136.533v68.267h-68.267v136.533h204.8v-68.267zM750.933 72.533v-136.533h-204.8v136.533h204.8zM477.867 72.533v-136.533h-204.8v136.533h204.8zM750.933 413.867v-136.533h-204.8v136.533h204.8zM477.867 413.867v-136.533h-204.8v136.533h204.8z" />
<glyph unicode="&#xe91a;" glyph-name="background-position-left-center" d="M0 667.429h438.857v-438.857h-438.857v438.857zM146.286 521.143v-146.286h146.286v146.286h-146.286z" />
<glyph unicode="&#xe91b;" glyph-name="mirror-vertically-up-path-2" d="M887.467 823.467h-750.933v-204.8h750.933v204.8zM1024 960v-477.867h-1024v477.867h1024z" />
<glyph unicode="&#xe91c;" glyph-name="background-position-left-top" d="M0 960h438.857v-438.857h-438.857v438.857zM146.286 813.714v-146.286h146.286v146.286h-146.286z" />
<glyph unicode="&#xe91d;" glyph-name="dashed-none-icon" d="M1024 155.429v-219.429h-219.429v146.286h73.143v73.143h146.286zM146.286 155.429v-73.143h73.143v-146.286h-219.429v219.429h146.286zM658.286 82.286v-146.286h-292.571v146.286h292.571zM146.286 594.286v-292.571h-146.286v292.571h146.286zM1024 594.286v-292.571h-146.286v292.571h146.286zM219.429 960v-146.286h-73.143v-73.143h-146.286v219.429h219.429zM1024 960v-219.429h-146.286v73.143h-73.143v146.286h219.429zM658.286 960v-146.286h-292.571v146.286h292.571z" />
<glyph unicode="&#xe91e;" glyph-name="background-position-right-bottom" d="M585.143 374.857h438.857v-438.857h-438.857v438.857zM731.429 228.571v-146.286h146.286v146.286h-146.286z" />
<glyph unicode="&#xe920;" glyph-name="background-position-right-center" d="M585.143 667.429h438.857v-438.857h-438.857v438.857zM731.429 521.143v-146.286h146.286v146.286h-146.286z" />
<glyph unicode="&#xe922;" glyph-name="background-position-right-top" d="M585.143 960h438.857v-438.857h-438.857v438.857zM731.429 813.714v-146.286h146.286v146.286h-146.286z" />
<glyph unicode="&#xe923;" glyph-name="shape-square" d="M146.286 82.286h731.429v731.429h-731.429v-731.429zM0 960h1024v-1024h-1024v1024z" />
<glyph unicode="&#xe924;" glyph-name="size-l" horiz-adv-x="768" d="M728.75 47.375h-478.5v880.688h-123.75v-992.063h602.25z" />
<glyph unicode="&#xe925;" glyph-name="size-m" horiz-adv-x="1152" d="M242-64v757.625h8.25l312.813-750.75h104.5l312.813 750.75h8.25v-757.625h115.5v992.063h-143.688l-339.625-820.875h-11l-339.625 820.875h-143.688v-992.063z" />
<glyph unicode="&#xe926;" glyph-name="size-s" horiz-adv-x="796" d="M70.278 280.167c11.611-152.167 140.556-251.167 327.556-251.167 201.667 0 329.389 103.278 329.389 265.222 0 129.556-73.333 200.444-256.056 246.278l-92.278 24.444c-121.611 31.167-169.889 70.889-169.889 139.944 0 89.222 77.611 147.889 194.944 147.889 110 0 184.556-53.778 199.833-144.222h110.611c-9.167 142.389-136.278 243.833-306.778 243.833-186.389 0-311.667-101.444-311.667-251.167 0-125.278 69.056-197.389 228.556-237.722l113.056-29.333c121.611-30.556 176.611-78.222 176.611-153.389 0-87.389-87.389-151.556-205.944-151.556-125.278 0-213.278 58.667-226.722 150.944h-111.222z" />
<glyph unicode="&#xe927;" glyph-name="size-xs" horiz-adv-x="1707" d="M55 49.778h124.667l235.278 347.722h9.778l231-347.722h132l-298.833 438.778 305.556 443.056h-125.278l-235.889-350.778h-9.778l-232.222 350.778h-132.611l298.222-438.167-301.889-443.667zM1003.19 280.167c11.611-152.167 140.556-251.167 327.556-251.167 201.667 0 329.389 103.278 329.389 265.222 0 129.556-73.333 200.444-256.056 246.278l-92.278 24.444c-121.611 31.167-169.889 70.889-169.889 139.944 0 89.222 77.611 147.889 194.944 147.889 110 0 184.556-53.778 199.833-144.222h110.611c-9.167 142.389-136.278 243.833-306.778 243.833-186.389 0-311.667-101.444-311.667-251.167 0-125.278 69.056-197.389 228.556-237.722l113.056-29.333c121.611-30.556 176.611-78.222 176.611-153.389 0-87.389-87.389-151.556-205.944-151.556-125.278 0-213.278 58.667-226.722 150.944h-111.222z" />
<glyph unicode="&#xe928;" glyph-name="vertical-alignment-bottom" d="M146.286 813.714v-731.429h146.286v731.429h-146.286zM0 960h438.857v-1024h-438.857v1024zM731.429 82.286h146.286v292.571h-146.286v-292.571zM585.143 521.143h438.857v-585.143h-438.857v585.143z" />
<glyph unicode="&#xe929;" glyph-name="vertical-alignment-middle" d="M146.286 813.714v-731.429h146.286v731.429h-146.286zM0 960h438.857v-1024h-438.857v1024zM731.429 301.714h146.286v292.571h-146.286v-292.571zM585.143 740.571h438.857v-585.143h-438.857v585.143z" />
<glyph unicode="&#xe92a;" glyph-name="vertical-alignment-top" d="M146.286 813.714v-731.429h146.286v731.429h-146.286zM0 960h438.857v-1024h-438.857v1024zM731.429 521.143h146.286v292.571h-146.286v-292.571zM585.143 960h438.857v-585.143h-438.857v585.143z" />
<glyph unicode="&#x1f4bb;" glyph-name="tablet-landscape" d="M32 960v-1024M64 960v-1024M96 960v-1024M128 960v-1024M160 960v-1024M192 960v-1024M224 960v-1024M256 960v-1024M288 960v-1024M320 960v-1024M352 960v-1024M384 960v-1024M416 960v-1024M448 960v-1024M480 960v-1024M512 960v-1024M544 960v-1024M576 960v-1024M608 960v-1024M640 960v-1024M672 960v-1024M704 960v-1024M736 960v-1024M768 960v-1024M800 960v-1024M832 960v-1024M864 960v-1024M896 960v-1024M928 960v-1024M960 960v-1024M992 960v-1024M0 928h1024M0 896h1024M0 864h1024M0 832h1024M0 800h1024M0 768h1024M0 736h1024M0 704h1024M0 672h1024M0 640h1024M0 608h1024M0 576h1024M0 544h1024M0 512h1024M0 480h1024M0 448h1024M0 416h1024M0 384h1024M0 352h1024M0 320h1024M0 288h1024M0 256h1024M0 224h1024M0 192h1024M0 160h1024M0 128h1024M0 96h1024M0 64h1024M0 32h1024M0 0h1024M0-32h1024M351 105h505.988c22.112 0 40.012 17.908 40.012 39.998v600.003c0 22.072-17.914 39.998-40.012 39.998h-505.988v-680zM251 105v680h-83.988c-22.112 0-40.012-17.908-40.012-39.998v-600.003c0-22.072 17.914-39.998 40.012-39.998h83.988zM937.009 885c33.132 0 59.991-26.877 59.991-60.010v-759.98c0-33.143-26.86-60.010-59.991-60.010h-850.017c-33.132 0-59.991 26.877-59.991 60.010v759.98c0 33.143 26.86 60.010 59.991 60.010h850.017z" />
<glyph unicode="&#x1f4f1;" glyph-name="mobile-portrait" d="M32 960v-1024M64 960v-1024M96 960v-1024M128 960v-1024M160 960v-1024M192 960v-1024M224 960v-1024M256 960v-1024M288 960v-1024M320 960v-1024M352 960v-1024M384 960v-1024M416 960v-1024M448 960v-1024M480 960v-1024M512 960v-1024M544 960v-1024M576 960v-1024M608 960v-1024M640 960v-1024M672 960v-1024M704 960v-1024M736 960v-1024M768 960v-1024M800 960v-1024M832 960v-1024M864 960v-1024M896 960v-1024M928 960v-1024M960 960v-1024M992 960v-1024M0 928h1024M0 896h1024M0 864h1024M0 832h1024M0 800h1024M0 768h1024M0 736h1024M0 704h1024M0 672h1024M0 640h1024M0 608h1024M0 576h1024M0 544h1024M0 512h1024M0 480h1024M0 448h1024M0 416h1024M0 384h1024M0 352h1024M0 320h1024M0 288h1024M0 256h1024M0 224h1024M0 192h1024M0 160h1024M0 128h1024M0 96h1024M0 64h1024M0 32h1024M0 0h1024M0-32h1024M772 284v505.988c0 22.112-17.906 40.012-39.994 40.012h-440.012c-22.094 0-39.994-17.914-39.994-40.012v-505.988h520zM772 184h-520v-83.988c0-22.112 17.906-40.012 39.994-40.012h440.012c22.094 0 39.994 17.914 39.994 40.012v83.988zM152 870.009c0 33.132 26.857 59.991 59.994 59.991h600.011c33.134 0 59.994-26.86 59.994-59.991v-850.017c0-33.132-26.857-59.991-59.994-59.991h-600.011c-33.134 0-59.994 26.86-59.994 59.991v850.017z" />
<glyph unicode="&#x1f4f2;" glyph-name="mobile-landscape" d="M32 960v-1024M64 960v-1024M96 960v-1024M128 960v-1024M160 960v-1024M192 960v-1024M224 960v-1024M256 960v-1024M288 960v-1024M320 960v-1024M352 960v-1024M384 960v-1024M416 960v-1024M448 960v-1024M480 960v-1024M512 960v-1024M544 960v-1024M576 960v-1024M608 960v-1024M640 960v-1024M672 960v-1024M704 960v-1024M736 960v-1024M768 960v-1024M800 960v-1024M832 960v-1024M864 960v-1024M896 960v-1024M928 960v-1024M960 960v-1024M992 960v-1024M0 928h1024M0 896h1024M0 864h1024M0 832h1024M0 800h1024M0 768h1024M0 736h1024M0 704h1024M0 672h1024M0 640h1024M0 608h1024M0 576h1024M0 544h1024M0 512h1024M0 480h1024M0 448h1024M0 416h1024M0 384h1024M0 352h1024M0 320h1024M0 288h1024M0 256h1024M0 224h1024M0 192h1024M0 160h1024M0 128h1024M0 96h1024M0 64h1024M0 32h1024M0 0h1024M0-32h1024M351 185h505.988c22.112 0 40.012 17.906 40.012 39.994v440.012c0 22.094-17.914 39.994-40.012 39.994h-505.988v-520zM251 185v520h-83.988c-22.112 0-40.012-17.906-40.012-39.994v-440.012c0-22.094 17.914-39.994 40.012-39.994h83.988zM937.009 805c33.132 0 59.991-26.857 59.991-59.994v-600.011c0-33.134-26.86-59.994-59.991-59.994h-850.017c-33.132 0-59.991 26.857-59.991 59.994v600.011c0 33.134 26.86 59.994 59.991 59.994h850.017z" />
<glyph unicode="&#x1f4fa;" glyph-name="desktop" d="M32 960v-1024M64 960v-1024M96 960v-1024M128 960v-1024M160 960v-1024M192 960v-1024M224 960v-1024M256 960v-1024M288 960v-1024M320 960v-1024M352 960v-1024M384 960v-1024M416 960v-1024M448 960v-1024M480 960v-1024M512 960v-1024M544 960v-1024M576 960v-1024M608 960v-1024M640 960v-1024M672 960v-1024M704 960v-1024M736 960v-1024M768 960v-1024M800 960v-1024M832 960v-1024M864 960v-1024M896 960v-1024M928 960v-1024M960 960v-1024M992 960v-1024M0 928h1024M0 896h1024M0 864h1024M0 832h1024M0 800h1024M0 768h1024M0 736h1024M0 704h1024M0 672h1024M0 640h1024M0 608h1024M0 576h1024M0 544h1024M0 512h1024M0 480h1024M0 448h1024M0 416h1024M0 384h1024M0 352h1024M0 320h1024M0 288h1024M0 256h1024M0 224h1024M0 192h1024M0 160h1024M0 128h1024M0 96h1024M0 64h1024M0 32h1024M0 0h1024M0-32h1024M462 66h-150v-100h400v100h-150v114h329.99c33.132 0 60.010 26.858 60.010 59.99v630.021c0 33.131-26.867 59.99-60.010 59.99h-759.98c-33.132 0-60.010-26.858-60.010-59.99v-630.021c0-33.131 26.867-59.99 60.010-59.99h329.99v-114zM172 790.002c0 22.090 17.926 39.998 39.998 39.998h600.003c22.091 0 39.998-17.909 39.998-39.998v-470.005c0-22.090-17.926-39.998-39.998-39.998h-600.003c-22.091 0-39.998 17.909-39.998 39.998v470.005z" />
<glyph unicode="&#x1f5b3;" glyph-name="tablet-portrait" d="M32 960v-1024M64 960v-1024M96 960v-1024M128 960v-1024M160 960v-1024M192 960v-1024M224 960v-1024M256 960v-1024M288 960v-1024M320 960v-1024M352 960v-1024M384 960v-1024M416 960v-1024M448 960v-1024M480 960v-1024M512 960v-1024M544 960v-1024M576 960v-1024M608 960v-1024M640 960v-1024M672 960v-1024M704 960v-1024M736 960v-1024M768 960v-1024M800 960v-1024M832 960v-1024M864 960v-1024M896 960v-1024M928 960v-1024M960 960v-1024M992 960v-1024M0 928h1024M0 896h1024M0 864h1024M0 832h1024M0 800h1024M0 768h1024M0 736h1024M0 704h1024M0 672h1024M0 640h1024M0 608h1024M0 576h1024M0 544h1024M0 512h1024M0 480h1024M0 448h1024M0 416h1024M0 384h1024M0 352h1024M0 320h1024M0 288h1024M0 256h1024M0 224h1024M0 192h1024M0 160h1024M0 128h1024M0 96h1024M0 64h1024M0 32h1024M0 0h1024M0-32h1024M852 284v505.988c0 22.112-17.908 40.012-39.998 40.012h-600.003c-22.072 0-39.998-17.914-39.998-40.012v-505.988h680zM852 184h-680v-83.988c0-22.112 17.908-40.012 39.998-40.012h600.003c22.072 0 39.998 17.914 39.998 40.012v83.988zM72 870.009c0 33.132 26.877 59.991 60.010 59.991h759.98c33.143 0 60.010-26.86 60.010-59.991v-850.017c0-33.132-26.877-59.991-60.010-59.991h-759.98c-33.143 0-60.010 26.86-60.010 59.991v850.017z" />
</font>
</defs>
</svg>
