<?xml version="1.0" standalone="no"?>
<!DOCTYPE svg PUBLIC "-//W3C//DTD SVG 1.1//EN" "http://www.w3.org/Graphics/SVG/1.1/DTD/svg11.dtd" >
<svg xmlns="http://www.w3.org/2000/svg">
<metadata>Generated by IcoMoon</metadata>
<defs>
<font id="vcDashboardIcons" horiz-adv-x="1024">
<font-face units-per-em="1024" ascent="960" descent="-64" />
<missing-glyph horiz-adv-x="1024" />
<glyph unicode="&#x20;" horiz-adv-x="512" d="" />
<glyph unicode="&#xe900;" glyph-name="dollar-round" d="M512 960c-282.724 0-512-229.276-512-512s229.276-512 512-512c282.724 0 512 229.276 512 512s-229.276 512-512 512zM662.634 270.168c-23.024-26.839-52.699-45.228-87.491-54.672-15.349-3.976-22.001-11.928-21.489-26.839s0-30.318 0-45.228c0-13.419-7.163-20.378-20.466-20.875-16.884-0.497-33.257-0.497-50.141 0-14.838 0.497-21.489 8.449-21.489 22.366 0 10.934 0 21.869-0.512 32.803 0 24.354-1.023 25.348-25.070 28.827-30.698 4.97-60.885 11.431-89.026 24.851-22.001 10.437-24.559 15.904-17.907 38.27 4.605 16.899 9.21 33.3 14.838 50.199 6.14 19.384 11.768 21.869 29.675 12.425 31.21-15.904 63.955-24.354 98.747-28.827 22.512-2.485 44.001-0.497 64.978 8.449 38.373 16.401 44.513 59.642 11.768 85.984-11.256 8.946-23.535 15.407-36.838 20.875-33.768 14.413-69.072 25.348-100.793 44.234-51.676 30.318-84.421 71.57-80.839 132.703 4.093 69.085 44.513 112.325 110.003 135.685 27.117 9.443 27.117 8.946 27.117 36.282 0 9.443 0 18.39 0 27.833 0.512 20.875 4.093 24.354 25.070 24.851 6.651 0 13.303 0 19.442 0 45.024 0 45.024 0 45.024-43.737 0-30.815 0-31.312 31.722-35.785 24.047-3.479 47.583-10.437 70.095-20.378 12.279-5.467 16.884-13.916 13.303-26.342-5.628-18.887-10.744-37.773-17.396-56.66-6.14-17.893-11.768-20.378-29.164-11.928-35.303 16.401-72.141 23.36-111.026 21.372-10.233-0.497-19.954-1.988-29.675-5.964-33.768-14.413-38.885-50.199-10.233-72.564 14.326-11.431 31.21-19.384 48.094-26.342 29.675-11.928 59.862-23.36 88.002-38.767 91.072-48.707 115.119-158.548 51.676-233.1z" />
<glyph unicode="&#xe901;" glyph-name="downloads" d="M462.368 226.429c38.017-38.017 59.682-39.488 99.231 0l290.719 297.986c27.296 45.986 4.962 83.584-49.601 83.584h-130.722v288.002c0.007 35.325-28.667 63.999-63.992 63.999h-192c-35.329 0-63.999-28.674-63.999-63.999v-288.002h-130.754c-54.559 0-76.897-37.63-49.601-83.584l290.719-297.986zM960.005 95.997h-896.006c-35.325 0-63.999-28.67-63.999-63.999v-31.999c0-35.361 28.674-63.999 63.999-63.999h896.002c35.329 0 63.999 28.642 63.999 63.999v31.999c0 35.329-28.67 63.999-63.995 63.999z" />
<glyph unicode="&#xe902;" glyph-name="cart" d="M431.158 178.526c59.53 0 107.789-48.259 107.789-107.789s-48.259-107.789-107.789-107.789c-59.53 0-107.789 48.259-107.789 107.789s48.259 107.789 107.789 107.789zM754.526 178.526c59.53 0 107.789-48.259 107.789-107.789s-48.259-107.789-107.789-107.789c-59.53 0-107.789 48.259-107.789 107.789s48.259 107.789 107.789 107.789zM67.85 933.053l72.062-0.013c16.829 0 32.962-6.038 45.352-16.803l5.072-4.899 60.773-69.215h722.009c16.761 0 32.449-7.984 41.944-21.331 8.132-11.446 10.822-25.579 7.631-38.905l-2.088-6.58-149.634-511.371c-6.715-16.878-22.379-28.651-40.565-31.059l-6.925-0.456h-485.534c-18.716 0-35.708 9.898-44.563 25.433l-2.927 6.082-142.147 492.561-38.626 45.442-41.848 0.007c-37.466 0.007-67.836 29.358-67.836 65.56 0 33.939 26.698 61.852 60.912 65.209l6.937 0.338z" />
<glyph unicode="&#xe903;" glyph-name="information" d="M511.978 960c-282.732 0-511.978-229.246-511.978-511.978s229.246-512.022 511.978-512.022c282.732 0 512.022 229.289 512.022 512.022s-229.289 511.978-512.022 511.978zM618.561 166.503c-26.353-10.403-47.332-18.291-63.065-23.752-15.69-5.461-33.938-8.192-54.7-8.192-31.901 0-56.737 7.802-74.422 23.362s-26.483 35.282-26.483 59.251c0 9.319 0.65 18.855 1.95 28.564 1.344 9.709 3.468 20.632 6.372 32.898l32.985 116.508c2.904 11.183 5.418 21.802 7.412 31.684 1.994 9.969 2.947 19.115 2.947 27.437 0 14.824-3.077 25.226-9.189 31.078-6.198 5.851-17.858 8.712-35.239 8.712-8.495 0-17.251-1.257-26.223-3.901-8.886-2.731-16.601-5.201-22.929-7.629l8.712 35.889c21.585 8.799 42.26 16.341 61.982 22.582 19.721 6.328 38.359 9.449 55.914 9.449 31.684 0 56.13-7.715 73.338-22.972 17.121-15.3 25.746-35.195 25.746-59.641 0-5.071-0.607-14-1.777-26.743-1.17-12.786-3.381-24.446-6.588-35.152l-32.811-116.162c-2.687-9.319-5.071-19.982-7.238-31.901-2.124-11.92-3.164-21.022-3.164-27.133 0-15.43 3.424-25.963 10.359-31.554 6.848-5.591 18.855-8.409 35.845-8.409 8.019 0 16.991 1.43 27.133 4.204 10.056 2.774 17.338 5.245 21.932 7.368l-8.799-35.845zM612.753 637.998c-15.3-14.217-33.722-21.325-55.263-21.325-21.499 0-40.050 7.108-55.48 21.325-15.344 14.217-23.102 31.511-23.102 51.709 0 20.155 7.802 37.492 23.102 51.839 15.43 14.39 33.982 21.542 55.48 21.542 21.542 0 40.006-7.152 55.263-21.542 15.3-14.347 22.972-31.684 22.972-51.839 0-20.242-7.672-37.492-22.972-51.709z" />
<glyph unicode="&#xe904;" glyph-name="check-round" d="M706.386 624.58l-230.655-214.693-116.47 118.795-79.989-77.527 196.458-189.337 303.587 285.091zM512 960c-282.768 0-512-229.232-512-512s229.232-512 512-512c282.768 0 512 229.232 512 512s-229.229 512-512 512zM512 64c-212.077 0-384 171.923-384 384s171.923 384 384 384c211.969-0.257 383.741-172.029 384-384 0-212.079-171.921-384-384-384z" />
<glyph unicode="&#xe905;" glyph-name="log-out" d="M947.2 960c42.415 0 76.8-34.385 76.8-76.8v-870.4c0-39.92-30.458-72.727-69.404-76.448l-7.396-0.352h-563.2c-42.415 0-76.8 34.385-76.8 76.8s34.385 76.8 76.8 76.8h486.4v716.8h-486.4c-42.415 0-76.8 34.385-76.8 76.8s34.385 76.8 76.8 76.8h563.2zM301.12 697.895c17.695 14.003 45.123 2.366 45.126-19.158l0.010-115.779h292.008c15.096 0 27.336-11.299 27.336-25.238v-179.445c0-13.938-12.239-25.237-27.336-25.237h-292.008l-0.010-115.779c-0.003-21.591-27.477-33.124-45.126-19.158l-291.58 230.735c-12.721 10.067-12.719 28.259 0 38.323l291.58 230.735z" />
<glyph unicode="&#xe906;" glyph-name="profile" d="M892.977 106.318c2.341 2.25 4.477 4.659 6.409 7.25 77.614 89.773 124.614 206.705 124.614 334.432 0 282.318-229.682 512-512 512s-512-229.682-512-512c0-127.659 46.977-244.568 124.523-334.318 1.977-2.682 4.205-5.159 6.614-7.477 93.795-104.409 229.773-170.205 380.864-170.205 151.136 0 287.159 65.841 380.977 170.318zM239.409 161.682c35.182 69.455 106.523 114.205 186.5 114.205h172.182c79.977 0 151.295-44.75 186.5-114.205-71.023-67.659-167-109.318-272.591-109.318s-201.568 41.659-272.591 109.318v0zM512 392.25c-63.5 0-115.136 51.659-115.136 115.159 0 63.477 51.636 115.136 115.136 115.136s115.159-51.659 115.159-115.136c0-63.5-51.659-115.159-115.159-115.159zM512 843.636c218.159 0 395.636-177.477 395.636-395.636 0-67.909-17.205-131.886-47.5-187.795-39.568 53.75-94.773 93.977-158.114 115.182 26.114 37.477 41.5 82.977 41.5 132.023 0 127.636-103.864 231.5-231.523 231.5s-231.5-103.864-231.5-231.5c0-49.045 15.364-94.545 41.477-132.023-63.341-21.205-118.545-61.432-158.114-115.182-30.273 55.909-47.5 119.886-47.5 187.795 0 218.159 177.477 395.636 395.636 395.636z" />
<glyph unicode="&#xe907;" glyph-name="book" horiz-adv-x="745" d="M76.472 823.694c56.122-31.236 111.547-62.201 167.093-93.045 86.076-47.773 171.97-95.816 258.409-142.806 20.080-10.904 28.591-24.489 28.5-47.712-0.787-187.536-0.545-375.072-0.545-562.548 0-14.669 0.697-28.826-15.84-37.019-17.657-8.705-32.316-3.916-47.641 5.633-127.569 79.189-255.441 157.897-383.010 237.056-93.981 58.315-76.081 33.465-77.504 136.992-2.211 159.312-2.847 318.625-5.906 477.937-0.757 39.158 14.174 68.165 42.402 92.623 43.734 37.923 93.95 63.014 151.859 68.797 16.749 1.717 36.223-2.229 51.276-9.789 157.159-79.189 313.592-159.764 470.418-239.465 20.323-10.362 28.5-24.188 28.409-47.562-0.848-190.729-1.393-381.488 0.336-572.217 0.33-37.441-29.684-57.14-65.604-43.586-17.385 6.627-23.048 19.458-22.958 37.863 0.575 120.757 0.303 241.484 0.273 362.15 0 59.58-0.454 119.13 0.303 178.68 0.212 15.844-5.391 23.254-19.899 30.874-115.091 60.243-229.424 121.962-344.030 183.169-23.472 12.531-47.278 24.579-70.599 37.411-23.745 13.043-47.975 14.127-72.023 2.53-27.47-13.223-55.97-25.663-73.719-55.966z" />
<glyph unicode="&#xe908;" glyph-name="heart" d="M439.849 34.977c19.98-19.422 46.042-29.158 72.131-29.158s52.151 9.737 72.131 29.158l350.038 340.584c119.801 117.576 119.801 308.86 0 426.436-115.773 113.598-301.675 117.419-422.17 11.543-120.521 105.902-306.424 102.055-422.17-11.543-119.801-117.576-119.801-308.86 0.32-426.724l349.718-340.296zM217.96 672.998c21.157 20.675 48.989 31.002 76.793 31.002s55.636-10.327 76.821-31.002l63.612-62.080c42.399-41.405 111.187-41.405 153.614 0l63.612 62.080c42.37 41.323 111.272 41.35 153.586 0 42.37-41.323 42.37-108.565 0.339-149.584l-294.359-284.869-294.019 284.565c-42.37 41.323-42.37 108.565 0 149.887z" />
<glyph unicode="&#xe909;" glyph-name="folder" horiz-adv-x="1265" d="M1075.101 827.708h-534.275l0.585-0.982c0.377-0.542 0.816-1.37 1.567-2.635l-1.567 2.635c-0.49 0.705-0.878 0.925-1.721 0.982h-2.843c1.347 0 2.22 0.045 2.843 0h1.134l-43.958 73.854c-20.469 34.387-62.551 58.438-102.085 58.438h-205.006c-104.821 0-189.775-86.157-189.775-192.552v-638.897c0-106.455 84.901-192.552 190.021-192.552h884.899c105.002 0 190.021 86.187 190.021 192.853v506.002c0 106.558-84.797 192.853-189.84 192.853zM1014.685 124.73h-764.428c-35.222 0-63.418 28.592-63.418 64.057v518.426c0 35.408 28.249 64.057 63.171 64.057h80.405l-0.549 0.922c-0.386 0.542-0.825 1.385-1.605 2.695l1.605-2.695c0.457-0.641 0.834-0.858 1.611-0.922h-1.062l43.958-73.854c20.525-34.483 62.566-58.438 102.236-58.438h538.254c35.047 0 63.239-28.689 63.239-64.359v-385.532c0-35.667-28.302-64.359-63.418-64.359z" />
<glyph unicode="&#xe90a;" glyph-name="key" d="M746.425 587.844c26.301 25.977 26.575 68.347 0.601 94.663-25.974 26.303-68.354 26.565-94.654 0.588-26.301-25.963-26.562-68.347-0.601-94.65 25.974-26.303 68.354-26.578 94.654-0.601v0zM1012.061 625.286c-20.719 54.175-58.981 132.51-123.465 197.994-64.367 65.353-141.008 103.841-193.962 124.614-65.425 25.663-140.498 9.779-191.361-40.579l-148.041-147.244c-53.53-52.986-69.151-130.955-39.791-198.622 3.961-9.112 9.033-20.512 15.347-33.441l-311.062-309.378c-12.628-12.563-19.726-29.637-19.726-47.456v-168.239c0-36.971 29.961-66.935 66.929-66.935h167.923c17.686 0 34.654 7.007 47.19 19.479l154.289 153.454c26.209 26.068 26.327 68.438 0.261 94.65s-68.445 26.343-94.654 0.261l-134.707-133.974h-73.373v73.472l326.696 324.922c21.739 21.636 26 55.274 10.353 81.642-11.66 19.623-21.726 39.625-32.667 64.83-7.333 16.904-3.059 36.134 11.268 50.306l148.041 147.257c13.333 13.191 31.804 17.4 48.197 10.968 40.863-16.028 99.622-45.338 147.478-93.918 48.262-49.012 77.661-109.658 93.818-151.911 6.628-17.296 2.444-36.84-10.654-49.796l-150.289-148.786c-13.347-13.191-33.151-16.943-50.458-9.57-18.837 8.027-38.811 18.721-61.059 32.683-31.321 19.636-72.628 10.158-92.262-21.166-19.634-31.31-10.17-72.622 21.151-92.258 28.249-17.714 54.314-31.585 79.661-42.396 67.582-28.813 144.956-14.080 197.126 37.572l150.302 148.786c50.785 50.267 67.086 125.934 41.504 192.778v0z" />
<glyph unicode="&#xe90b;" glyph-name="close" d="M998.61 852.562l-389.888-389.888 389.888-389.888-111.397-111.397-389.888 389.888-389.888-389.888-111.397 111.397 389.888 389.888-389.888 389.888 111.397 111.397 389.888-389.888 389.888 389.888z" />
<glyph unicode="&#xe90c;" glyph-name="go-back" horiz-adv-x="1331" d="M602.24 947.79c35.391 28.006 90.247 4.732 90.252-38.317l0.021-231.557h584.016c30.192 0 54.671-22.598 54.671-50.476v-358.89c0-27.876-24.477-50.473-54.671-50.473h-584.016l-0.021-231.557c-0.005-43.181-54.955-66.248-90.252-38.317l-583.16 461.471c-25.443 20.134-25.438 56.518 0 76.645l583.16 461.471z" />
<glyph unicode="&#xe90d;" glyph-name="error-icon" horiz-adv-x="1138" d="M568.889 960c59.396 0 112.781-31.238 143.481-82.845v0l401.963-684.475c30.696-53.646 31.365-117.477 1.329-171.122-30.027-53.642-84.080-85.559-144.811-85.559v0h-803.927c-60.731 0-114.783 31.917-144.811 85.559-30.031 53.644-29.362 117.475 1.331 171.122v0l401.963 684.475c30.7 51.607 84.087 82.845 143.482 82.845zM568.889 220.444c-31.479 0-56.889-25.408-56.889-56.889 0-31.477 25.408-56.889 56.889-56.889s56.889 25.411 56.889 56.889c0 31.479-25.411 56.889-56.889 56.889zM568.89 675.556c-31.289 0-56.89-29.867-56.89-66.371v0-265.481c0-36.502 25.602-66.369 56.89-66.369s56.888 29.865 56.888 66.369v0 265.481c0 36.504-25.599 66.371-56.888 66.371z" />
<glyph unicode="&#xe90e;" glyph-name="hub-shop" d="M960 64h-64v128c0 35.328-28.608 64-64 64s-64-28.672-64-64v-128h-512v128c0 35.328-28.608 64-64 64s-64-28.672-64-64v-128h-64c-35.392 0-64-28.672-64-64s28.608-64 64-64h896c35.392 0 64 28.672 64 64s-28.608 64-64 64zM960 960h-896c-35.392 0-64-28.672-64-64v-384c0-70.656 57.28-128 128-128s128 57.344 128 128c0-70.656 57.344-128 128-128s128 57.344 128 128c0-70.656 57.344-128 128-128s128 57.344 128 128c0-70.656 57.344-128 128-128s128 57.344 128 128v384c0 35.328-28.608 64-64 64z" />
<glyph unicode="&#xe90f;" glyph-name="pay-pal" horiz-adv-x="1536" d="M1376.004 960h-1216.004c-88.191 0-159.999-71.808-159.999-160.002v-704c0-88.191 71.808-159.999 159.999-159.999h1216.001c88.191 0 159.999 71.808 159.999 159.999v704c0 88.194-71.805 160.002-159.996 160.002zM1472.004 96.002c0-52.929-43.071-96-96-96h-1216.004c-52.929 0-96 43.071-96 96v703.997c0 52.929 43.071 96 96 96h1216.001c52.929 0 96.003-43.071 96.003-96v-703.997zM956.992 666.25c-33.343 74.295-107.125 123.083-189.058 123.083h-259.578l-98.757-597.333h163.432l-19.731-119.467h223.002l29.626 179.2h112.947c101.896 0 187.944 73.471 204.609 174.716 9.583 57.794-4.636 115.201-40.005 161.627-31.246 40.994-76.631 68.753-126.487 78.174v0zM582.862 251.733h-103.313l78.997 477.867h209.389c62.94 0 119.211-40.265 140.012-100.202 8.144-23.523 10.278-48.956 6.148-73.668-11.898-72.311-73.369-124.797-146.16-124.797h-155.447l-29.626-179.2zM1065.050 436.307v-0.044c-11.912-72.311-73.369-124.797-146.175-124.797h-163.143l-29.626-179.2h-102.879l39.462 238.933h105.244c8.195 0 16.223 0.642 24.179 1.568 84.088 9.778 153.603 69.781 175.793 152.214 1.852 6.84 3.45 13.796 4.622 20.934 0.014 0.109 0.014 0.226 0.029 0.328 1.396 8.364 2.257 16.785 2.611 25.244 0.014 0.219 0.043 0.43 0.043 0.656 0.325 8.378 0.116 16.756-0.55 25.083-0.029 0.408-0.029 0.809-0.072 1.21-0.029 0.27-0.029 0.54-0.043 0.824 24.186-9.931 45.711-26.272 61.927-47.549 25.271-33.17 35.419-74.142 28.577-115.405v0z" />
<glyph unicode="&#xe910;" glyph-name="credit-card" horiz-adv-x="1536" d="M1376.004 960c85.741 0 155.994-67.874 159.831-152.691l0.165-7.31v-704c0-85.741-67.874-155.997-152.689-159.834l-7.31-0.165h-1216.001c-85.741 0-155.997 67.874-159.834 152.689l-0.165 7.31v704c0 85.744 67.874 156 152.689 159.837l7.31 0.165h1216.004zM1472 516.267h-1408.034l0.033-420.265c0-50.969 39.94-92.796 90.161-95.824l5.839-0.176h1216.004c50.969 0 92.796 39.94 95.825 90.161l0.176 5.839-0.004 420.265zM1262.933 379.733c56.458 0 102.4-45.946 102.4-102.4v0-68.266c0-56.458-45.943-102.4-102.4-102.4v0h-68.266c-56.458 0-102.4 45.943-102.4 102.4v0 68.266c0 56.458 45.943 102.4 102.4 102.4v0zM236.496 209.067h380.341c17.496 0 31.696-15.292 31.696-34.133 0-17.495-12.244-31.931-28.001-33.904l-3.695-0.23h-380.341c-17.496 0-31.696 15.292-31.696 34.133 0 17.495 12.244 31.931 28.001 33.904l3.695 0.23h380.341zM1262.933 311.464h-68.266c-18.842 0-34.135-15.293-34.135-34.135v0-68.266c0-18.842 15.293-34.135 34.135-34.135v0h68.266c18.842 0 34.135 15.293 34.135 34.135v0 68.266c0 18.842-15.293 34.135-34.135 34.135v0zM616.837 311.467c17.496 0 31.696-15.29 31.696-34.132 0-17.496-12.244-31.932-28.001-33.905l-3.695-0.23h-380.341c-17.496 0-31.696 15.29-31.696 34.132 0 17.496 12.244 31.932 28.001 33.905l3.695 0.23h380.341zM1471.998 721.068h-1407.999v-136.533h1407.999v136.533zM1376.001 895.998h-1216.001c-50.969 0-92.796-39.94-95.825-90.161l-0.176-5.839-0.033-10.665h1408.034l0.004 10.665c0 50.969-39.942 92.796-90.164 95.824l-5.839 0.176z" />
<glyph unicode="&#xe911;" glyph-name="css" d="M812.836 218.691c-16.014 0-32.027 5.461-45.172 16.754-29.065 24.993-32.49 68.776-7.498 97.934l100.063 116.724-100.155 116.817c-24.993 29.065-21.568 72.941 7.498 97.934 29.251 24.993 73.034 21.568 97.934-7.498l138.847-161.989c22.308-26.011 22.308-64.333 0-90.436l-138.847-161.989c-13.7-16.014-33.138-24.252-52.669-24.252zM211.164 218.691c-19.531 0-38.97 8.238-52.762 24.252l-138.847 161.989c-22.308 26.011-22.308 64.333 0 90.436l138.847 161.989c24.993 29.065 68.776 32.583 97.934 7.498 29.065-24.993 32.49-68.776 7.498-97.934l-100.063-116.817 100.155-116.817c24.993-29.065 21.568-72.941-7.498-97.934-13.144-11.108-29.251-16.662-45.264-16.662zM427.025 81.603c-37.396 8.609-60.63 45.912-52.114 83.216l138.847 601.672c8.609 37.304 45.912 60.352 83.216 52.114 37.396-8.609 60.63-45.912 52.114-83.216l-138.847-601.672c-8.423-36.748-44.987-60.723-83.216-52.114v0z" />
<glyph unicode="&#xe912;" glyph-name="popup-builder" d="M901.494 908.8c56.554 0 89.706-45.846 89.706-102.4v-716.8c0-56.554-33.152-102.4-89.706-102.4h-819.025c-56.554 0-82.469 45.846-82.469 102.4v716.8c0 56.554 25.915 102.4 82.469 102.4h819.025zM112.457 742.506v-588.974l0.274-5.056c2.556-23.592 22.939-46.662 59.269-48.636l643.537 0.323c39.487 3.194 53.233 29.496 56.006 53.369v588.974c0 26.257-18.4 53.654-64.251 53.654l-634.109 0.051c-25.999 0.699-60.726 7.411-60.726-53.705zM640 550.4c42.415 0 76.8-34.385 76.8-76.8s-34.385-76.8-76.8-76.8h-307.2c-42.415 0-76.8 34.385-76.8 76.8s34.385 76.8 76.8 76.8h307.2z" />
<glyph unicode="&#xe913;" glyph-name="settings" d="M1024 384.992v128l-152.992 63.744c-4.256 12-8.736 23.616-14.24 35.008l61.76 153.76-90.528 90.496-152.384-62.752c-11.616 5.632-23.488 10.368-35.744 14.752l-64.864 152h-128l-63.264-151.488c-12.736-4.512-24.992-9.248-37.12-15.008l-152.128 61.12-90.496-90.496 62.016-150.752c-6.016-12.384-10.88-24.992-15.52-38.016l-150.496-64.352v-128l150.624-62.752c4.64-12.992 9.632-25.632 15.616-38.016l-60.864-151.744 90.496-90.496 151.136 62.24c12.128-5.76 24.512-10.368 37.248-14.752l64.736-151.488h128l63.36 152.256c12.128 4.512 24.128 9.248 35.616 14.752l153.504-61.504 90.496 90.496-63.008 152.736c5.376 11.488 9.76 23.136 14.016 35.008l153.024 65.248zM511.008 256c-105.984 0-192 86.016-192 192s86.016 192 192 192c105.984 0 192-86.016 192-192s-86.016-192-192-192v0z" />
<glyph unicode="&#xe914;" glyph-name="template" horiz-adv-x="931" d="M849.358 960h-744.569c-42.325 0-74.971-40.789-74.971-83.217v-275.217h894.545v275.217c0 42.428-32.613 83.217-75.006 83.217zM132.052 704v104.823c0 32.631 25.831 48.777 58.375 48.777h573.293c32.578 0 58.41-16.145 58.41-48.777v-104.823h-690.078zM104.79-64h744.569c42.359 0 75.006 40.789 75.006 83.217v480.017h-894.545v-480.017c0-42.428 32.578-83.217 74.971-83.217zM132.052 396.8h690.078v-309.589c0-32.631-25.865-48.811-58.41-48.811h-573.293c-32.578 0-58.375 16.145-58.375 48.811v309.589z" />
<glyph unicode="&#xe915;" glyph-name="theme-builder" horiz-adv-x="931" d="M74.971-64c-51.413 0-74.971 41.678-74.971 93.091v837.818c0 51.413 23.559 93.091 74.971 93.091h744.569c51.413 0 81.551-41.678 81.551-93.091v-837.818c0-51.413-30.138-93.091-81.551-93.091h-744.569zM496.312 592.325h-394.078v-505.114c0-23.87 20.278-48.811 58.375-48.811 112.238 0 224.139 0 335.702 0v553.925zM792.312 592.325h-170.494v-553.925h112.084c41.682 0 55.721 25.662 58.41 48.811v505.114zM160.609 857.6c-23.87 0-58.375 9.309-58.375-48.777 0-32.587 0-67.528 0-104.823h690.078v104.823c0 23.87-16.727 48.777-58.41 48.777h-573.293z" />
<glyph unicode="&#xe916;" glyph-name="WP" d="M0.017 448.017c0-202.639 117.767-377.798 288.573-460.773l-244.238 669.129c-28.399-63.672-44.336-134.134-44.336-208.357zM857.631 473.842c0 63.297-22.736 107.1-42.213 141.196-25.948 42.196-50.275 77.882-50.275 120.081 0 47.063 35.666 90.866 85.961 90.866 2.28 0 4.441-0.276 6.632-0.416-91.075 83.463-212.449 134.431-345.737 134.431-178.869 0-336.224-91.785-427.779-230.752 12.032-0.396 23.357-0.642 32.956-0.642 53.538 0 136.465 6.509 136.465 6.509 27.59 1.625 30.833-38.932 3.263-42.196 0 0-27.747-3.246-58.583-4.854l186.433-554.592 112.049 336.032-79.763 218.563c-27.59 1.608-53.692 4.854-53.692 4.854-27.59 1.638-24.364 43.82 3.243 42.196 0 0 84.535-6.509 134.844-6.509 53.542 0 136.465 6.509 136.465 6.509 27.59 1.625 30.853-38.932 3.263-42.196 0 0-27.778-3.246-58.58-4.854l185.013-550.359 51.070 170.612c25.962 66.54 38.963 121.702 38.963 165.519zM520.998 403.231l-153.627-446.375c45.872-13.486 94.385-20.855 144.63-20.855 59.634 0 116.818 10.291 170.028 29.024-1.348 2.195-2.625 4.519-3.659 7.059l-157.372 431.148zM961.277 693.63c2.208-16.295 3.454-33.785 3.454-52.64 0-51.934-9.742-110.339-38.953-183.375l-156.372-452.127c152.228 88.747 254.577 253.648 254.577 442.525 0 89.023-22.757 172.708-62.706 245.617z" />
<glyph unicode="&#xe917;" glyph-name="getting-started" d="M1013.933 949.983c-6.572 6.572-16.361 10.338-24.849 9.995-193.523-3.628-419.289-116.591-562.634-280.695-155.051-5.545-284.5-52.305-365.209-133.022-8.762-8.695-12.117-21.497-8.762-33.41 3.354-11.981 12.938-21.155 24.986-24.030l145.741-34.916-0.89-0.958c-12.185-13.487-11.637-34.231 1.232-47.102l246.234-246.258c6.64-6.709 15.402-9.995 24.233-9.995 8.215 0 16.361 2.875 22.864 8.763l0.958 0.89 34.912-145.756c2.875-12.049 12.048-21.634 24.028-24.989 3.080-0.89 6.161-1.301 9.31-1.301 8.968 0 17.661 3.492 24.233 9.995 80.777 80.785 127.464 210.179 133.009 365.314 164.293 143.839 277.039 369.353 280.67 562.69 0.133 9.242-3.495 18.211-10.067 24.783zM100.193 207.698c-39.177-39.181-89.33-201.919-98.964-234.152-3.094-10.277-0.234-21.43 7.298-29.021 5.547-5.547 13.020-8.525 20.669-8.525 2.803 0 5.605 0.409 8.408 1.226 32.229 9.635 194.892 59.735 234.127 98.974 47.292 47.297 47.292 124.2 0 171.556-47.409 47.297-124.303 47.239-171.537-0.058v0z" />
<glyph unicode="&#xe918;" glyph-name="star" horiz-adv-x="1078" d="M1075.083 573.043c-7.056 21.637-26.415 37.004-49.319 39.050l-311.109 28.004-123.021 285.443c-9.071 20.919-29.729 34.461-52.682 34.461s-43.611-13.541-52.682-34.509l-123.021-285.394-311.159-28.004c-22.862-2.095-42.172-17.414-49.269-39.050s-0.543-45.369 16.752-60.328l235.162-204.448-69.344-302.807c-5.074-22.264 3.643-45.279 22.278-58.633 10.017-7.174 21.736-10.826 33.553-10.826 10.189 0 20.297 2.723 29.367 8.104l268.362 158.998 268.263-158.998c19.63-11.707 44.376-10.639 62.97 2.723 18.644 13.395 27.353 36.417 22.278 58.633l-69.344 302.807 235.162 204.407c17.295 15.001 23.899 38.692 16.801 60.369z" />
<glyph unicode="&#xe919;" glyph-name="update" d="M1011.194 900.991c-8.539 8.997-18.661 13.51-30.357 13.51-11.691 0-21.799-4.513-30.354-13.51l-87.689-91.749c-48.118 47.888-103.215 84.993-165.27 111.299-62.051 26.308-125.928 39.459-191.589 39.459-123.676 0-231.602-39.462-323.797-118.403-92.197-78.931-152.906-181.915-182.138-308.978v-4.974c0-6.162 2.134-11.5 6.408-15.998 4.274-4.506 9.331-6.758 15.176-6.758h134.238c9.898 0 16.639 5.457 20.239 16.355 18.886 47.405 30.799 75.137 35.751 83.2 31.477 54.045 73.3 96.479 125.469 127.295 52.174 30.814 108.387 46.227 168.644 46.227 90.401 0 168.873-32.478 235.437-97.428l-93.107-98.13c-8.522-9.009-12.809-19.682-12.809-32.009 0-12.324 4.284-22.993 12.809-31.999 8.556-9.009 18.678-13.51 30.371-13.51h302.211c11.693 0 21.815 4.501 30.357 13.51 8.537 9.007 12.806 19.672 12.806 31.999v318.59c0 12.327-4.244 22.99-12.806 32.002zM1002.29 391.081h-130.115c-9.941 0-16.718-5.447-20.323-16.354-18.966-47.408-30.948-75.127-35.911-83.189-31.632-54.031-73.65-96.477-126.047-127.29-52.418-30.822-108.89-46.217-169.428-46.217-43.82 0-86.067 8.526-126.723 25.587-40.661 17.081-77.035 41.263-109.108 72.554l92.846 97.416c8.581 8.999 12.875 19.679 12.875 31.998 0 12.324-4.294 23.004-12.875 31.998-8.586 9.016-18.747 13.527-30.495 13.527h-303.609c-11.754 0-21.921-4.511-30.504-13.527-8.583-8.996-12.872-19.677-12.872-32.001v-318.578c0-12.317 4.289-22.994 12.875-31.998 8.59-8.991 18.757-13.52 30.504-13.52 11.745 0 21.907 4.526 30.495 13.52l87.42 91.74c48.345-48.345 103.354-85.568 165.025-111.641 61.67-26.083 125.487-39.107 191.444-39.107 123.799 0 231.773 39.465 323.937 118.393 92.165 78.925 152.705 181.926 181.633 308.972 0.453 0.946 0.667 2.608 0.667 4.969 0 6.172-2.153 11.487-6.445 16.008-4.296 4.481-9.383 6.74-15.265 6.74z" />
<glyph unicode="&#xe91a;" glyph-name="lock" horiz-adv-x="801" d="M704.778 543.727v140.451c0 152.469-135.575 275.822-301.609 275.822h-4.825c-166.034 0-301.707-123.376-301.707-275.822v-140.451c-60.015-64.407-96.638-148.239-96.638-239.949 0-203.113 179.411-367.778 400.586-367.778 221.151 0 400.805 164.643 400.805 367.823 0 91.665-36.599 175.497-96.613 239.904zM400.732 200.476c-62.135 0-112.5 46.235-112.5 103.324s50.366 103.324 112.5 103.324c62.159 0 112.549-46.235 112.549-103.324 0-57.067-50.366-103.324-112.549-103.324zM583.189 631.43c-55.19 25.669-116.911 40.148-182.481 40.148-65.546 0-127.315-14.457-182.432-40.148v52.748c0 90.971 80.994 165.605 180.093 165.605h4.825c99.074 0 179.996-74.634 179.996-165.605v-52.748z" />
<glyph unicode="&#xe91b;" glyph-name="import" d="M970.105 43.789c29.765 0 53.895-24.129 53.895-53.895s-24.129-53.895-53.895-53.895h-916.211c-29.765 0-53.895 24.129-53.895 53.895s24.129 53.895 53.895 53.895h916.211zM538.737 951.523l5.043-4.186 251.453-242.262c12.861-12.389 16.714-31.045 9.788-47.183-6.222-14.403-19.841-24.346-35.575-26.377l-5.989-0.384h-109.872v-314.090c0-29.744-23.367-54.205-53.348-57.334l-6.52-0.338h-163.413c-30.843 0-56.264 22.48-59.516 51.386l-0.352 6.287v314.090h-109.91c-18.202 0-34.529 10.589-41.524 26.761-6.19 14.373-3.833 30.686 5.801 42.834l3.951 4.349 251.411 242.262c16 15.349 40.968 16.744 58.57 4.186z" />
<glyph unicode="&#xe91c;" glyph-name="a-letter" horiz-adv-x="967" d="M479.203 959.997c113.975 0.536 211.775-70.692 248.736-181.391l233.406-698.313c19.022-56.91-10.563-118.852-66.089-138.35-54.033-19.444-116.063 10.283-134.974 67.743l-48.385 144.76-458.194-0.528-46.583-143.35c-18.549-57.078-78.746-87.949-134.405-68.919-55.68 19.008-85.792 80.689-67.237 137.767l226.504 697.011c36.073 111.014 133.114 183.065 247.221 183.569zM482.010 744.419h-0.261c-13.501-0.061-37.647-4.71-47.612-35.202l-111.767-342.060h322.37l-115.092 342.476c-10.149 30.203-34.088 34.786-47.639 34.786z" />
</font>
</defs>
</svg>
