<?xml version="1.0" encoding="UTF-8"?>
<svg width="32px" height="32px" viewBox="0 0 32 32" version="1.1" xmlns="http://www.w3.org/2000/svg" xmlns:xlink="http://www.w3.org/1999/xlink">
    <!-- Generator: Sketch 46 (44423) - http://www.bohemiancoding.com/sketch -->
    <title>RawJS-32x32</title>
    <desc>Created with Sketch.</desc>
    <defs></defs>
    <g id="Page-1" stroke="none" stroke-width="1" fill="none" fill-rule="evenodd">
        <g id="31-Raw-JS" transform="translate(-190.000000, -96.000000)">
            <g id="RawJS-32x32" transform="translate(190.000000, 96.000000)">
                <rect id="Rectangle-1" x="0" y="0" width="32" height="32"></rect>
                <path d="M8,20 L25,20 L25,25 L8,25 L8,20 Z M10,22 L10,23 L23,23 L23,22 L10,22 Z" id="Combined-Shape" fill="#555555"></path>
                <path d="M8,7 L25,7 L25,12 L8,12 L8,7 Z M10,9 L10,10 L23,10 L23,9 L10,9 Z" id="Combined-Shape" fill="#555555"></path>
                <path d="M8,13 L25,13 L25,19 L8,19 L8,13 Z M10,15 L10,17 L23,17 L23,15 L10,15 Z" id="Combined-Shape" fill="#555555" opacity="0.5"></path>
            </g>
        </g>
    </g>
</svg>