<?xml version="1.0" standalone="no"?>
<!DOCTYPE svg PUBLIC "-//W3C//DTD SVG 1.1//EN" "http://www.w3.org/Graphics/SVG/1.1/DTD/svg11.dtd" >
<svg xmlns="http://www.w3.org/2000/svg">
<metadata>Generated by IcoMoon</metadata>
<defs>
<font id="VC-Icons" horiz-adv-x="1024">
<font-face units-per-em="1024" ascent="960" descent="-64" />
<missing-glyph horiz-adv-x="1024" />
<glyph unicode="&#x20;" horiz-adv-x="512" d="" />
<glyph unicode="&#x2261;" glyph-name="mobile-menu" d="M0.001 886.856h1024v-146.287h-1024v146.287zM0.001 521.165h1024v-146.306h-1024v146.306zM0.001 155.429h1024v-146.287h-1024v146.287z" />
<glyph unicode="&#x22ee;" glyph-name="drag-dots" d="M626.763 448c0-63.382-51.381-114.763-114.763-114.763s-114.763 51.381-114.763 114.763c0 63.382 51.381 114.763 114.763 114.763s114.763-51.381 114.763-114.763zM626.763 845.238c0-63.382-51.381-114.763-114.763-114.763s-114.763 51.381-114.763 114.763c0 63.382 51.381 114.763 114.763 114.763s114.763-51.381 114.763-114.763zM626.763 50.764c0-63.382-51.381-114.763-114.763-114.763s-114.763 51.381-114.763 114.763c0 63.382 51.381 114.763 114.763 114.763s114.763-51.381 114.763-114.763z" />
<glyph unicode="&#x22ef;" glyph-name="more-dots" d="M512 333.237c-63.382 0-114.763 51.381-114.763 114.763s51.381 114.763 114.763 114.763c63.382 0 114.763-51.381 114.763-114.763s-51.381-114.763-114.763-114.763zM909.238 333.237c-63.382 0-114.763 51.381-114.763 114.763s51.381 114.763 114.763 114.763c63.382 0 114.763-51.381 114.763-114.763s-51.381-114.763-114.763-114.763zM114.764 333.237c-63.382 0-114.763 51.381-114.763 114.763s51.381 114.763 114.763 114.763c63.382 0 114.763-51.381 114.763-114.763s-51.381-114.763-114.763-114.763z" />
<glyph unicode="&#x2315;" glyph-name="search" horiz-adv-x="951" d="M658.286 475.428q0 105.714-75.143 180.857t-180.857 75.143-180.857-75.143-75.143-180.857 75.143-180.857 180.857-75.143 180.857 75.143 75.143 180.857zM950.857 0q0-29.714-21.714-51.429t-51.429-21.714q-30.857 0-51.429 21.714l-196 195.429q-102.286-70.857-228-70.857-81.714 0-156.286 31.714t-128.571 85.714-85.714 128.571-31.714 156.286 31.714 156.286 85.714 128.571 128.571 85.714 156.286 31.714 156.286-31.714 128.571-85.714 85.714-128.571 31.714-156.286q0-125.714-70.857-228l196-196q21.143-21.143 21.143-51.429z" />
<glyph unicode="&#x23f8;" glyph-name="row-layout" d="M64-64h384v1024h-448v-1024h64zM128 64v768h192v-768h-192zM960-64h-384v1024h448v-1024h-64zM896 64v768h-192v-768h192z" />
<glyph unicode="&#x25be;" glyph-name="expand" d="M248.78 555.435l263.22-263.22 263.22 263.22c17.844 17.844 5.212 48.35-20.025 48.35h-486.389c-25.237 0-37.87-30.506-20.025-48.35z" />
<glyph unicode="&#x2661;" glyph-name="heart-stroke" d="M739.616 768c78.624 0 143.744-58.24 154.752-134.016l-382.24-438.976-382.496 438.976c11.008 75.776 76.128 134.016 154.752 134.016 64.512 0 123.36-69.248 123.36-69.248l104.256-110.752 104.256 110.752c0 0 58.88 69.248 123.36 69.248M739.616 896c-95.488 0-176-50.496-227.616-123.008-51.616 72.512-132.128 123.008-227.616 123.008-156.896 0-284.384-127.744-284.384-284.512v-23.488l512.256-588 511.744 588v23.488c0 156.768-127.488 284.512-284.384 284.512v0z" />
<glyph unicode="&#x270e;" glyph-name="edit" d="M307.98-30.499l682.45 682.398c27.513 27.513 33.572 60.032 6.041 87.529l-183.808 183.791c-27.479 27.496-70.338 30.413-97.867 2.9l-684.158-680.051c-30.637-29.222-23.923-29.706-23.958-49.055l-0.501-200.206c0.069-29.93 23.975-54.371 53.887-54.44l213.273 5.697c14.948-0.052 23.043 9.77 34.642 21.438zM791.588 798.044l79.709-79.744c12.738-12.755 6.714-32.536-6.076-45.31l-47.449-47.466-120.859 120.841 56.218 55.751c12.755 12.79 25.666 8.683 38.457-4.074zM219.226 26.84l-86.873 3.21c-13.861 0.034-24.528 10.080-24.613 23.975l1.898 99.214c0 6.87 0.225 9.805 14.827 24.476l0.017-0.034 484.316 481.277 121.186-121.186-495.154-495.154c-11.599-11.599-8.734-15.845-15.604-15.776z" />
<glyph unicode="&#x2710;" glyph-name="pen-alt-fill" d="M948.992 884.992c-99.872 100-262.112 100-361.984 0l-586.016-585.984-0.992-363.008h361.984l587.008 587.008c100 100 100 261.984 0 361.984zM307.616 64h-180.992v182.016c49.984 49.984 131.008 49.984 180.992 0s50.016-132.032 0-182.016zM856.128 613.504l-180.992 180.992c49.984 49.984 131.008 49.984 180.992 0s49.984-131.008 0-180.992z" />
<glyph unicode="&#x2714;" glyph-name="save" d="M496.783 176.777l527.215 527.237-108.612 108.589-512.011-511.989-294.788 294.788-108.589-108.589 403.376-403.42z" />
<glyph unicode="&#x2715;" glyph-name="add-thin" d="M0 511.488h1024v-126.993h-1024v126.993zM448.495 960h126.976v-1024h-126.976v1024z" />
<glyph unicode="&#x2716;" glyph-name="close" d="M0 90.701l869.299 869.299 154.445-154.445-869.042-869.555-154.701 154.701zM0 805.299l154.445 154.445 869.299-869.299-154.445-154.445-869.299 869.299z" />
<glyph unicode="&#x2717;" glyph-name="close-thin" d="M911.023-63.98l-910.984 910.984 112.978 112.978 910.984-910.984-112.978-112.978zM112.963-63.966l-112.963 112.963 910.984 910.984 112.963-112.963-910.984-910.984z" />
<glyph unicode="&#x2723;" glyph-name="move" d="M576 320v-192h128l-192-192-192 192h128v192zM448 576v192h-128l192 192 192-192h-128v-192zM384 384h-192v-128l-192 192 192 192v-128h192zM640 512h192v128l192-192-192-192v128h-192z" />
<glyph unicode="&#x2795;" glyph-name="add" d="M0 539.017h1024v-182.036h-1024v182.036zM420.969 959.986h182.036v-1023.973h-182.036v1023.973z" />
<glyph unicode="&#x2796;" glyph-name="remove" d="M0 539.017h1024v-182.036h-1024v182.036z" />
<glyph unicode="&#x293e;" glyph-name="undo" horiz-adv-x="1022" d="M900.936 840.968c-158.614 158.582-435.332 158.71-593.85 0l-179.094-179.222v170.23h-127.992v-383.976h383.976v127.992l-160.726-0.096 174.486 174.486c110.234 110.362 302.478 110.362 412.71-0.128 55.132-55.134 85.498-128.376 85.498-206.356 0-78.076-30.366-151.35-85.498-206.644l-96.506-96.474 90.49-90.458 96.506 96.25c79.258 79.516 123 185.046 123 297.326 0 112.216-43.742 217.714-123 297.070zM590.332-64l-90.492 90.618 90.556 90.458 90.49-90.618z" />
<glyph unicode="&#x293f;" glyph-name="redo" horiz-adv-x="1022" d="M121.064 840.968c158.614 158.582 435.332 158.71 593.85 0l179.094-179.222v170.23h127.992v-383.976h-383.976v127.992l160.726-0.096-174.486 174.486c-110.234 110.362-302.478 110.362-412.71-0.128-55.132-55.134-85.498-128.376-85.498-206.356 0-78.076 30.366-151.35 85.498-206.644l96.506-96.474-90.49-90.458-96.506 96.25c-79.258 79.516-123 185.046-123 297.326 0 112.216 43.742 217.714 123 297.070zM431.668-64l90.492 90.618-90.556 90.458-90.49-90.618z" />
<glyph unicode="&#x1f41e;" glyph-name="bug" horiz-adv-x="951" d="M932.571 402.286q0-14.857-10.857-25.714t-25.714-10.857h-128q0-97.714-38.286-165.714l118.857-119.429q10.857-10.857 10.857-25.714t-10.857-25.714q-10.286-10.857-25.714-10.857t-25.714 10.857l-113.143 112.571q-2.857-2.857-8.571-7.429t-24-16.286-37.143-20.857-46.857-16.571-55.429-7.429v512h-73.143v-512q-29.143 0-58 7.714t-49.714 18.857-37.714 22.286-24.857 18.571l-8.571 8-104.571-118.286q-11.429-12-27.429-12-13.714 0-24.571 9.143-10.857 10.286-11.714 25.429t8.857 26.571l115.429 129.714q-33.143 65.143-33.143 156.571h-128q-14.857 0-25.714 10.857t-10.857 25.714 10.857 25.714 25.714 10.857h128v168l-98.857 98.857q-10.857 10.857-10.857 25.714t10.857 25.714 25.714 10.857 25.714-10.857l98.857-98.857h482.286l98.857 98.857q10.857 10.857 25.714 10.857t25.714-10.857 10.857-25.714-10.857-25.714l-98.857-98.857v-168h128q14.857 0 25.714-10.857t10.857-25.714zM658.286 731.428h-365.714q0 76 53.429 129.429t129.429 53.429 129.429-53.429 53.429-129.429z" />
<glyph unicode="&#x1f4bb;" glyph-name="tablet-landscape" d="M2 992v-1088M36 992v-1088M70 992v-1088M104 992v-1088M138 992v-1088M172 992v-1088M206 992v-1088M240 992v-1088M274 992v-1088M308 992v-1088M342 992v-1088M376 992v-1088M410 992v-1088M444 992v-1088M478 992v-1088M512 992v-1088M546 992v-1088M580 992v-1088M614 992v-1088M648 992v-1088M682 992v-1088M716 992v-1088M750 992v-1088M784 992v-1088M818 992v-1088M852 992v-1088M886 992v-1088M920 992v-1088M954 992v-1088M988 992v-1088M1022 992v-1088M-32 958h1088M-32 924h1088M-32 890h1088M-32 856h1088M-32 822h1088M-32 788h1088M-32 754h1088M-32 720h1088M-32 686h1088M-32 652h1088M-32 618h1088M-32 584h1088M-32 550h1088M-32 516h1088M-32 482h1088M-32 448h1088M-32 414h1088M-32 380h1088M-32 346h1088M-32 312h1088M-32 278h1088M-32 244h1088M-32 210h1088M-32 176h1088M-32 142h1088M-32 108h1088M-32 74h1088M-32 40h1088M-32 6h1088M-32-28h1088M-32-62h1088M340.938 83.562h537.612c23.494 0 42.513 19.027 42.513 42.498v637.503c0 23.452-19.034 42.498-42.513 42.498h-537.612v-722.5zM234.688 83.562v722.5h-89.237c-23.494 0-42.513-19.027-42.513-42.498v-637.503c0-23.452 19.034-42.498 42.513-42.498h89.237zM963.572 912.312c35.203 0 63.74-28.557 63.74-63.761v-807.479c0-35.214-28.539-63.761-63.74-63.761h-903.143c-35.203 0-63.74 28.557-63.74 63.761v807.479c0 35.214 28.539 63.761 63.74 63.761h903.143z" />
<glyph unicode="&#x1f4f0;" glyph-name="template" d="M884.89 960h-742.4c-42.393 0-78.489-40.781-78.489-83.201v-275.201h896v275.201c0 42.419-32.666 83.201-75.111 83.201zM857.6 704.001h-691.201v104.807c0 32.64 29.286 48.794 61.901 48.794h570.803c32.615 0 58.496-16.154 58.496-48.794v-104.807zM139.085-64h742.4c42.419 0 78.515 40.781 78.515 83.201v480h-896v-480c0-42.419 32.64-83.201 75.086-83.201zM166.4 396.8h691.201v-309.606c0-32.64-29.312-48.794-61.926-48.794h-570.803c-32.615 0-58.47 16.154-58.47 48.794v309.606z" />
<glyph unicode="&#x1f4f1;" glyph-name="mobile-portrait" d="M2 992v-1088M36 992v-1088M70 992v-1088M104 992v-1088M138 992v-1088M172 992v-1088M206 992v-1088M240 992v-1088M274 992v-1088M308 992v-1088M342 992v-1088M376 992v-1088M410 992v-1088M444 992v-1088M478 992v-1088M512 992v-1088M546 992v-1088M580 992v-1088M614 992v-1088M648 992v-1088M682 992v-1088M716 992v-1088M750 992v-1088M784 992v-1088M818 992v-1088M852 992v-1088M886 992v-1088M920 992v-1088M954 992v-1088M988 992v-1088M1022 992v-1088M-32 958h1088M-32 924h1088M-32 890h1088M-32 856h1088M-32 822h1088M-32 788h1088M-32 754h1088M-32 720h1088M-32 686h1088M-32 652h1088M-32 618h1088M-32 584h1088M-32 550h1088M-32 516h1088M-32 482h1088M-32 448h1088M-32 414h1088M-32 380h1088M-32 346h1088M-32 312h1088M-32 278h1088M-32 244h1088M-32 210h1088M-32 176h1088M-32 142h1088M-32 108h1088M-32 74h1088M-32 40h1088M-32 6h1088M-32-28h1088M-32-62h1088M788.25 273.75v537.612c0 23.494-19.025 42.513-42.494 42.513h-467.513c-23.475 0-42.494-19.034-42.494-42.513v-537.612h552.5zM788.25 167.5h-552.5v-89.237c0-23.494 19.025-42.513 42.494-42.513h467.513c23.475 0 42.494 19.034 42.494 42.513v89.237zM129.5 896.385c0 35.203 28.536 63.74 63.744 63.74h637.512c35.205 0 63.744-28.539 63.744-63.74v-903.143c0-35.203-28.536-63.74-63.744-63.74h-637.512c-35.205 0-63.744 28.539-63.744 63.74v903.143z" />
<glyph unicode="&#x1f4f2;" glyph-name="mobile-landscape" d="M2 992v-1088M36 992v-1088M70 992v-1088M104 992v-1088M138 992v-1088M172 992v-1088M206 992v-1088M240 992v-1088M274 992v-1088M308 992v-1088M342 992v-1088M376 992v-1088M410 992v-1088M444 992v-1088M478 992v-1088M512 992v-1088M546 992v-1088M580 992v-1088M614 992v-1088M648 992v-1088M682 992v-1088M716 992v-1088M750 992v-1088M784 992v-1088M818 992v-1088M852 992v-1088M886 992v-1088M920 992v-1088M954 992v-1088M988 992v-1088M1022 992v-1088M-32 958h1088M-32 924h1088M-32 890h1088M-32 856h1088M-32 822h1088M-32 788h1088M-32 754h1088M-32 720h1088M-32 686h1088M-32 652h1088M-32 618h1088M-32 584h1088M-32 550h1088M-32 516h1088M-32 482h1088M-32 448h1088M-32 414h1088M-32 380h1088M-32 346h1088M-32 312h1088M-32 278h1088M-32 244h1088M-32 210h1088M-32 176h1088M-32 142h1088M-32 108h1088M-32 74h1088M-32 40h1088M-32 6h1088M-32-28h1088M-32-62h1088M340.938 168.562h537.612c23.494 0 42.513 19.025 42.513 42.494v467.513c0 23.475-19.034 42.494-42.513 42.494h-537.612v-552.5zM234.688 168.562v552.5h-89.237c-23.494 0-42.513-19.025-42.513-42.494v-467.513c0-23.475 19.034-42.494 42.513-42.494h89.237zM963.572 827.312c35.203 0 63.74-28.536 63.74-63.744v-637.512c0-35.205-28.539-63.744-63.74-63.744h-903.143c-35.203 0-63.74 28.536-63.74 63.744v637.512c0 35.205 28.539 63.744 63.74 63.744h903.143z" />
<glyph unicode="&#x1f4fa;" glyph-name="desktop" d="M2 992v-1088M36 992v-1088M70 992v-1088M104 992v-1088M138 992v-1088M172 992v-1088M206 992v-1088M240 992v-1088M274 992v-1088M308 992v-1088M342 992v-1088M376 992v-1088M410 992v-1088M444 992v-1088M478 992v-1088M512 992v-1088M546 992v-1088M580 992v-1088M614 992v-1088M648 992v-1088M682 992v-1088M716 992v-1088M750 992v-1088M784 992v-1088M818 992v-1088M852 992v-1088M886 992v-1088M920 992v-1088M954 992v-1088M988 992v-1088M1022 992v-1088M-32 958h1088M-32 924h1088M-32 890h1088M-32 856h1088M-32 822h1088M-32 788h1088M-32 754h1088M-32 720h1088M-32 686h1088M-32 652h1088M-32 618h1088M-32 584h1088M-32 550h1088M-32 516h1088M-32 482h1088M-32 448h1088M-32 414h1088M-32 380h1088M-32 346h1088M-32 312h1088M-32 278h1088M-32 244h1088M-32 210h1088M-32 176h1088M-32 142h1088M-32 108h1088M-32 74h1088M-32 40h1088M-32 6h1088M-32-28h1088M-32-62h1088M458.875 42.125h-159.375v-106.25h425v106.25h-159.375v121.125h350.614c35.203 0 63.761 28.537 63.761 63.739v669.397c0 35.202-28.546 63.739-63.761 63.739h-807.479c-35.203 0-63.761-28.537-63.761-63.739v-669.397c0-35.202 28.546-63.739 63.761-63.739h350.614v-121.125zM150.75 811.377c0 23.471 19.046 42.498 42.498 42.498h637.503c23.472 0 42.498-19.028 42.498-42.498v-499.38c0-23.471-19.046-42.498-42.498-42.498h-637.503c-23.472 0-42.498 19.028-42.498 42.498v499.38z" />
<glyph unicode="&#x1f512;" glyph-name="lock-stroke" horiz-adv-x="768" d="M448.128 960c-176.32 0-319.936-143.488-319.936-320v-64h-128.192v-448c0-105.76 86.24-192 191.936-192h384.064c106.016 0 192 86.24 192 192v512c0 176.512-143.488 320-319.872 320zM256.192 640c0 105.984 86.176 192 191.936 192 105.888 0 191.872-86.016 191.872-192v-64h-383.808v64zM576 64h-384.064c-35.264 0-64 28.736-64 64v320h512.064v-320c0-35.264-28.512-64-64-64zM448 256c0-35.264-28.736-64-64-64-35.488 0-64 28.736-64 64 0 35.488 28.512 64 64 64 35.264 0 64-28.512 64-64z" />
<glyph unicode="&#x1f513;" glyph-name="unlock-stroke" horiz-adv-x="768" d="M448.128 960c-176.448 0-319.936-143.616-319.936-320h128c0 105.76 86.048 192 191.936 192s191.872-86.24 191.872-192v-64h-640v-448c0-105.984 86.112-192 191.936-192h384.064c105.888 0 192 86.016 192 192v512c0 176.384-143.488 320-319.872 320zM576 64h-384.064c-35.264 0-64 28.64-64 64v320h512.064v-320c0-35.36-28.736-64-64-64zM448 256c0-35.488-28.64-64-64-64s-64 28.512-64 64c0 35.264 28.64 64 64 64s64-28.736 64-64z" />
<glyph unicode="&#x1f517;" glyph-name="link" d="M1005.248 941.248c-24.992 24.992-65.888 24.992-90.88 0l-130.24-130.368c-53.376 35.488-114.624 53.12-176.128 53.12-81.888 0-163.744-31.264-226.24-93.76l-192-192c-109.504-109.376-123.008-278.496-40.736-402.624l-130.24-130.368c-24.992-24.992-24.992-65.504 0-90.496 12.48-12.512 28.832-18.752 45.216-18.752s32.736 6.24 45.248 18.752l130.24 130.368c53.376-35.488 115.008-53.12 176.512-53.12 81.888 0 163.744 31.264 226.24 93.76l191.616 192c109.504 109.376 123.008 278.496 40.736 402.624l130.624 130.368c25.024 24.992 25.024 65.504 0.032 90.496zM799.616 544c0-51.264-20-99.488-56.256-135.744l-191.616-192c-36.256-36.256-84.48-56.256-135.744-56.256-28.992 0-56.736 7.136-82.24 19.264l95.488 95.488c24.992 24.992 24.992 65.504 0 90.496s-65.504 24.992-90.496 0l-95.488-95.488c-12.256 25.376-19.264 53.12-19.264 82.24 0 51.264 20 99.488 56.256 135.744l192 192c36.256 36.256 84.48 56.256 135.744 56.256 28.992 0 56.64-7.136 82.112-19.264l-97.376-97.504c-24.992-24.992-24.992-65.504 0-90.496 12.512-12.512 28.864-18.752 45.248-18.752 16.256 0 32.64 6.24 45.12 18.752l97.248 97.504c12.288-25.376 19.264-53.12 19.264-82.24z" />
<glyph unicode="&#x1f58d;" glyph-name="eyedropper" horiz-adv-x="1022" d="M948.96 522.112c99.872 99.808 99.872 261.76 0 361.504-49.888 49.888-115.36 74.88-180.736 74.88-65.312 0-130.816-24.992-180.672-74.88l-18.88-18.88-95.168 95.264-90.24-90.304 95.264-95.2-478.528-478.816v-231.936l125.76-127.744h237.248l476.832 476.992 92-92.064 90.368 90.24-92.128 92.064 18.88 18.88zM330.24 84.256c1.504 48.512-15.264 97.12-52.128 134.016-33.888 33.984-78.112 50.624-122.624 52.128l413.408 413.536 180.576-180.448-419.232-419.232z" />
<glyph unicode="&#x1f5a7;" glyph-name="multiple-devices" d="M2 992v-1088M36 992v-1088M70 992v-1088M104 992v-1088M138 992v-1088M172 992v-1088M206 992v-1088M240 992v-1088M274 992v-1088M308 992v-1088M342 992v-1088M376 992v-1088M410 992v-1088M444 992v-1088M478 992v-1088M512 992v-1088M546 992v-1088M580 992v-1088M614 992v-1088M648 992v-1088M682 992v-1088M716 992v-1088M750 992v-1088M784 992v-1088M818 992v-1088M852 992v-1088M886 992v-1088M920 992v-1088M954 992v-1088M988 992v-1088M1022 992v-1088M-32 958h1088M-32 924h1088M-32 890h1088M-32 856h1088M-32 822h1088M-32 788h1088M-32 754h1088M-32 720h1088M-32 686h1088M-32 652h1088M-32 618h1088M-32 584h1088M-32 550h1088M-32 516h1088M-32 482h1088M-32 448h1088M-32 414h1088M-32 380h1088M-32 346h1088M-32 312h1088M-32 278h1088M-32 244h1088M-32 210h1088M-32 176h1088M-32 142h1088M-32 108h1088M-32 74h1088M-32 40h1088M-32 6h1088M-32-28h1088M-32-62h1088M331.375 63.375h-116.875v-106.25h340v106.25h-116.875v36.125h265.631c35.209 0 63.744 28.538 63.744 63.739v499.395c0 35.201-28.539 63.739-63.744 63.739h-637.512c-35.209 0-63.744-28.538-63.744-63.739v-499.395c0-35.201 28.539-63.739 63.744-63.739h265.631v-36.125zM108.25 577.63c0 23.47 19.019 42.495 42.494 42.495h467.513c23.468 0 42.494-19.018 42.494-42.495v-329.386c0-23.47-19.019-42.495-42.494-42.495h-467.513c-23.469 0-42.494 19.018-42.494 42.495v329.386zM915.75 811.377c0 23.47-19.024 42.498-42.493 42.498h-233.766c-23.448 0-42.493-19.027-42.493-42.498v-85.002h-106.25v170.011c0 35.202 28.562 63.739 63.751 63.739h403.748c35.209 0 63.751-28.538 63.751-63.739v-669.397c0-35.202-28.562-63.739-63.751-63.739h-191.249v106.25h106.257c23.448 0 42.493 19.027 42.493 42.498v46.752h-148.75v106.25h148.75v346.377z" />
<glyph unicode="&#x1f5b3;" glyph-name="tablet-portrait" d="M2 992v-1088M36 992v-1088M70 992v-1088M104 992v-1088M138 992v-1088M172 992v-1088M206 992v-1088M240 992v-1088M274 992v-1088M308 992v-1088M342 992v-1088M376 992v-1088M410 992v-1088M444 992v-1088M478 992v-1088M512 992v-1088M546 992v-1088M580 992v-1088M614 992v-1088M648 992v-1088M682 992v-1088M716 992v-1088M750 992v-1088M784 992v-1088M818 992v-1088M852 992v-1088M886 992v-1088M920 992v-1088M954 992v-1088M988 992v-1088M1022 992v-1088M-32 958h1088M-32 924h1088M-32 890h1088M-32 856h1088M-32 822h1088M-32 788h1088M-32 754h1088M-32 720h1088M-32 686h1088M-32 652h1088M-32 618h1088M-32 584h1088M-32 550h1088M-32 516h1088M-32 482h1088M-32 448h1088M-32 414h1088M-32 380h1088M-32 346h1088M-32 312h1088M-32 278h1088M-32 244h1088M-32 210h1088M-32 176h1088M-32 142h1088M-32 108h1088M-32 74h1088M-32 40h1088M-32 6h1088M-32-28h1088M-32-62h1088M873.25 273.75v537.612c0 23.494-19.027 42.513-42.498 42.513h-637.503c-23.452 0-42.498-19.034-42.498-42.513v-537.612h722.5zM873.25 167.5h-722.5v-89.237c0-23.494 19.027-42.513 42.498-42.513h637.503c23.452 0 42.498 19.034 42.498 42.513v89.237zM44.5 896.385c0 35.203 28.557 63.74 63.761 63.74h807.479c35.214 0 63.761-28.539 63.761-63.74v-903.143c0-35.203-28.557-63.74-63.761-63.74h-807.479c-35.214 0-63.761 28.539-63.761 63.74v903.143z" />
<glyph unicode="&#x1f5c7;" glyph-name="copy" d="M719.939 721.067h-674.115c-42.445 0-45.824-9.472-45.824-51.9v-681.266c0-42.428 22.699-51.9 65.126-51.9h674.132c42.428 0 45.807 9.472 45.807 51.9v681.266c0 42.428-22.699 51.9-65.126 51.9zM653.449 38.4h-519.595c-32.614 0-31.454 10.462-31.454 43.093v494.080c0 32.633-3.413 43.093 29.218 43.093h519.578c32.633 0 31.471-10.462 31.471-43.093v-494.080c0-32.633 3.413-43.093-29.218-43.093zM958.873 959.999h-674.115c-42.445 0-45.824-9.472-45.824-51.9v-187.034h102.4v93.44c0 32.633-3.413 43.093 29.218 43.093h519.578c32.633 0 31.471-10.462 31.471-43.093v-494.080c0-32.633 3.413-43.093-29.218-43.093h-107.315v-102.4h193.109c42.445 0 45.824 9.472 45.824 51.9v681.266c0 42.428-22.699 51.9-65.126 51.9z" />
<glyph unicode="&#x1f5ca;" glyph-name="paste" d="M130.543-64h759.467c42.428 0 74.257 15.172 74.257 57.6v727.467h-904.533v-727.467c0-42.428 28.382-57.6 70.81-57.6zM162.133 618.667h699.733v-531.473c0-32.666-25.037-48.794-57.668-48.794h-587.861c-32.614 0-54.204 16.128-54.204 48.794v531.473zM59.733 902.4v-283.733h904.533v283.733c0 42.428-31.829 57.6-74.274 57.6h-759.467c-42.411 0-70.793-15.172-70.793-57.6zM162.133 808.806c0 32.649 21.589 48.794 54.204 48.794h604.928c32.631 0 40.602-16.145 40.602-48.794v-87.74h-699.733v87.74z" />
<glyph unicode="&#x1f5cb;" glyph-name="document-alt-stroke" horiz-adv-x="768" d="M448 960h-448v-1024h768v704.064l-320 319.936zM128 64v768h256v-256h256v-512h-512z" />
<glyph unicode="&#x1f5d1;" glyph-name="trash" d="M0 908.1v-233.267c0-42.428 22.699-51.9 65.126-51.9h913.067c42.428 0 45.807 9.472 45.807 51.9v233.267c0 42.428-22.699 51.9-65.126 51.9h-913.050c-42.445 0-45.824-9.472-45.824-51.9zM102.4 768.427v46.080c0 32.634-3.413 43.093 29.218 43.093h769.178c32.631 0 31.471-10.462 31.471-43.093v-46.080c0-32.631 3.413-43.093-29.218-43.093h-769.195c-32.614 0-31.454 10.462-31.454 43.093zM578.133 661.333h102.4v-622.933h-102.4v622.933zM354.133 661.333h102.4v-622.933h-102.4v622.933zM839.405 721.067h-674.114c-42.445 0-45.824-9.472-45.824-51.9v-681.267c0-42.428 22.699-51.9 65.126-51.9h674.133c42.428 0 45.807 9.472 45.807 51.9v681.267c0 42.428-22.699 51.9-65.126 51.9h-0.002zM772.915 38.4h-519.595c-32.614 0-31.454 10.462-31.454 43.093v494.080c0 32.634-3.413 43.093 29.218 43.093h519.578c32.631 0 31.471-10.462 31.471-43.093v-494.080c0-32.631 3.413-43.093-29.218-43.093v0 0z" />
<glyph unicode="&#x1f5d7;" glyph-name="layers" horiz-adv-x="1022" d="M0 256l512.032-128 511.968 128v-128l-511.968-128-512.032 128zM0 512l512.032-128 511.968 128v-128l-511.968-128-512.032 128zM0 768l512.032 128 511.968-128v-128l-511.968-128-512.032 128z" />
<glyph unicode="&#x1f6e0;" glyph-name="cog" d="M1024 384.992v128l-152.992 63.744c-4.256 12-8.736 23.616-14.24 35.008l61.76 153.76-90.528 90.496-152.384-62.752c-11.616 5.632-23.488 10.368-35.744 14.752l-64.864 152h-128l-63.264-151.488c-12.736-4.512-24.992-9.248-37.12-15.008l-152.128 61.12-90.496-90.496 62.016-150.752c-6.016-12.384-10.88-24.992-15.52-38.016l-150.496-64.352v-128l150.624-62.752c4.64-12.992 9.632-25.632 15.616-38.016l-60.864-151.744 90.496-90.496 151.136 62.24c12.128-5.76 24.512-10.368 37.248-14.752l64.736-151.488h128l63.36 152.256c12.128 4.512 24.128 9.248 35.616 14.752l153.504-61.504 90.496 90.496-63.008 152.736c5.376 11.488 9.76 23.136 14.016 35.008l153.024 65.248zM511.008 256c-105.984 0-192 86.016-192 192s86.016 192 192 192 192-86.016 192-192-86.016-192-192-192z" />
</font>
</defs>
</svg>
