<?xml version="1.0" encoding="UTF-8"?>
<svg width="10px" height="8px" viewBox="0 0 10 8" version="1.1" xmlns="http://www.w3.org/2000/svg" xmlns:xlink="http://www.w3.org/1999/xlink">
    <title>Path</title>
    <g id="Intro-User-Survey" stroke="none" stroke-width="1" fill="none" fill-rule="evenodd">
        <g id="intro-user-survey" transform="translate(-485.000000, -350.000000)" fill="#FFFFFF" fill-rule="nonzero">
            <g id="popup" transform="translate(429.000000, 214.000000)">
                <g id="01" transform="translate(30.000000, 100.000000)">
                    <g id="check-ico" transform="translate(20.000000, 29.000000)">
                        <path d="M15.7940303,7.78477906 L15.1874121,7.19497455 C14.9200461,6.93500848 14.4850367,6.93500848 14.2176512,7.19497455 L9.13013752,12.1417468 C9.10345366,12.1677061 9.05661041,12.1676865 9.02990702,12.1417468 L7.77447648,10.9210894 C7.50711049,10.6611234 7.07210111,10.6611234 6.80473511,10.9210894 L6.20596968,11.5032612 C6.07315596,11.6323907 6,11.8048642 6,11.9889144 C6,12.1729647 6.07315596,12.3454382 6.20596968,12.4745677 L8.01707298,14.2355243 C8.01730739,14.2357402 8.01752227,14.235956 8.01775668,14.2361719 L8.60282857,14.8050402 C8.73652133,14.935033 8.91207611,15 9.08768948,15 C9.26326379,15 9.4388967,14.9349938 9.57256993,14.8050402 L15.7940303,8.7560856 C15.926844,8.6269561 16,8.45448258 16,8.27045195 C16,8.08642133 15.9268636,7.91392818 15.7940303,7.78477906 Z" id="Path"></path>
                    </g>
                </g>
            </g>
        </g>
    </g>
</svg>