<?xml version="1.0" encoding="UTF-8" standalone="no"?>
<svg width="7px" height="11px" viewBox="0 0 7 11" version="1.1" xmlns="http://www.w3.org/2000/svg" xmlns:xlink="http://www.w3.org/1999/xlink">
    <defs>
        <path d="M3,0 L4,0 L4,4 L3,4 L3,0 L3,0 Z M4,1 L5,1 L5,4 L4,4 L4,1 L4,1 Z M5,2 L6,2 L6,4 L5,4 L5,2 L5,2 Z M6,3 L7,3 L7,4 L6,4 L6,3 L6,3 Z M2,1 L3,1 L3,4 L2,4 L2,1 L2,1 Z M1,2 L2,2 L2,4 L1,4 L1,2 L1,2 Z M0,3 L1,3 L1,4 L0,4 L0,3 Z M4,11 L3,11 L3,7 L4,7 L4,11 Z M3,10 L2,10 L2,7 L3,7 L3,10 Z M2,9 L1,9 L1,7 L2,7 L2,9 Z M1,8 L0,8 L1.11022302e-16,7 L1,7 L1,8 Z M5,10 L4,10 L4,7 L5,7 L5,10 Z M6,9 L5,9 L5,7 L6,7 L6,9 Z M7,8 L6,8 L6,7 L7,7 L7,8 Z" id="path-1"></path>
        <mask id="mask-2" maskContentUnits="userSpaceOnUse" maskUnits="objectBoundingBox" x="0" y="0" width="7" height="11" fill="white">
            <use xlink:href="#path-1"></use>
        </mask>
    </defs>
    <g id="Page-1" stroke="none" stroke-width="1" fill="none">
        <use id="Combined-Shape" stroke="#7b7b7b" mask="url(#mask-2)" stroke-width="2" fill="none" xlink:href="#path-1"></use>
    </g>
</svg>