<?xml version="1.0" encoding="UTF-8" standalone="no"?>
<svg width="32px" height="32px" viewBox="0 0 32 32" version="1.1" xmlns="http://www.w3.org/2000/svg" xmlns:xlink="http://www.w3.org/1999/xlink">
    <!-- Generator: Sketch 3.8.3 (29802) - http://www.bohemiancoding.com/sketch -->
    <title>32</title>
    <desc>Created with Sketch.</desc>
    <defs></defs>
    <g id="Page-1" stroke="none" stroke-width="1" fill="none" fill-rule="evenodd">
        <g id="20-Counters" transform="translate(-155.000000, -96.000000)" fill="#FFFFFF">
            <g id="Counters-32x32" transform="translate(155.000000, 96.000000)">
                <path d="M21.8501435,9.74323692 C21.8658986,9.72223014 21.8806766,9.7002463 21.8945997,9.67789607 C21.8978973,9.67215584 21.9011949,9.66690415 21.904126,9.66165245 C21.9193926,9.63490545 21.9331936,9.60681499 21.9451625,9.57811387 C21.946506,9.57481629 21.9474831,9.57103019 21.9489486,9.56761048 C21.9589635,9.54232907 21.9675128,9.51607059 21.9742301,9.48944572 C21.9761842,9.48272844 21.9780162,9.47601115 21.9794818,9.469416 C21.986199,9.44120341 21.9919393,9.41262442 21.9947483,9.38306837 C21.9952368,9.38160278 21.9957254,9.37964867 21.9957254,9.37830521 C21.9985344,9.35253527 22,9.32676532 22,9.30050685 L22,6.73279459 C22,6.32829198 21.671708,6 21.2672054,6 L10.7327946,6 C10.328292,6 10,6.32829198 10,6.73279459 L10,9.30050685 C10,9.32676532 10.0014656,9.35253527 10.0042746,9.37830521 C10.0042746,9.37964867 10.0047632,9.38160278 10.0047632,9.3835569 C10.0080607,9.41262442 10.013801,9.44120341 10.0205182,9.469416 C10.0219838,9.47601115 10.0238158,9.48272844 10.0252814,9.48944572 C10.0324872,9.51607059 10.0410365,9.54232907 10.0510514,9.56761048 C10.0525169,9.57103019 10.053494,9.57481629 10.0548375,9.57811387 C10.0663179,9.60681499 10.0801189,9.63490545 10.0953854,9.66165245 C10.0988051,9.66739268 10.1021027,9.67264437 10.1054003,9.67789607 C10.1193234,9.7002463 10.1341014,9.72223014 10.1498565,9.74323692 C10.152177,9.74653449 10.1546197,9.7503206 10.1569402,9.75374031 L15.0670303,15.989578 L10.1569402,22.2250494 C10.1541311,22.2288355 10.152177,22.2327437 10.1498565,22.2360413 C10.1341014,22.2570481 10.1188349,22.2789098 10.1054003,22.3013821 C10.1021027,22.3066338 10.0988051,22.3118855 10.0953854,22.3176257 C10.0806074,22.3443727 10.0668064,22.3724632 10.0548375,22.4010422 C10.053494,22.4044619 10.0525169,22.4077595 10.0510514,22.4110571 C10.0410365,22.436827 10.0324872,22.4630855 10.0252814,22.4893439 C10.0238158,22.4965498 10.0219838,22.5031449 10.0205182,22.5098622 C10.013801,22.5380748 10.0080607,22.5666538 10.0047632,22.5957213 C10.0047632,22.5976754 10.0042746,22.599141 10.0042746,22.600973 C10.0014656,22.6267429 10,22.6525129 10,22.6787713 L10,25.2463615 C10,25.6509862 10.328292,25.9791561 10.7327946,25.9791561 L21.2672054,25.9791561 C21.671708,25.9791561 22,25.6509862 22,25.2463615 L22,22.6787713 C22,22.6525129 21.9985344,22.6267429 21.9957254,22.600973 C21.9957254,22.599141 21.9952368,22.5976754 21.9947483,22.5957213 C21.9919393,22.5666538 21.986199,22.5380748 21.9794818,22.5098622 C21.9780162,22.5031449 21.9761842,22.4965498 21.9742301,22.4893439 C21.9675128,22.4630855 21.9589635,22.436827 21.9489486,22.4110571 C21.9474831,22.4077595 21.946506,22.4044619 21.9451625,22.4010422 C21.9331936,22.3724632 21.9198811,22.3443727 21.904126,22.3176257 C21.9011949,22.3118855 21.8978973,22.3066338 21.8945997,22.3013821 C21.8806766,22.2789098 21.8658986,22.2570481 21.8501435,22.2360413 C21.8473345,22.2327437 21.8453803,22.2288355 21.8430598,22.2250494 L16.9329697,15.989578 L21.8430598,9.75374031 C21.8458689,9.7503206 21.8473345,9.74653449 21.8501435,9.74323692 L21.8501435,9.74323692 Z M11.4655892,8.56771226 L20.5344108,8.56771226 L20.5344108,7.46558919 L11.4655892,7.46558919 L11.4655892,8.56771226 Z M11.4655892,24.5135669 L20.5344108,24.5135669 L20.5344108,23.4115659 L11.4655892,23.4115659 L11.4655892,24.5135669 Z M19.7577707,21.9459768 L12.2427179,21.9459768 L16.0002443,17.1742626 L19.7577707,21.9459768 Z M16.0002443,14.8050156 L12.2427179,10.0333014 L19.7577707,10.0333014 L16.0002443,14.8050156 Z" id="Fill-1"></path>
            </g>
        </g>
    </g>
</svg>