<?xml version="1.0" encoding="UTF-8" standalone="no"?>
<svg width="32px" height="32px" viewBox="0 0 32 32" version="1.1" xmlns="http://www.w3.org/2000/svg" xmlns:xlink="http://www.w3.org/1999/xlink">
    <!-- Generator: Sketch 3.8.3 (29802) - http://www.bohemiancoding.com/sketch -->
    <title>32</title>
    <desc>Created with Sketch.</desc>
    <defs></defs>
    <g id="Page-1" stroke="none" stroke-width="1" fill="none" fill-rule="evenodd">
        <g id="27-Maps" transform="translate(-155.000000, -316.000000)" fill="#FFFFFF">
            <g id="Maps-32x32" transform="translate(155.000000, 316.000000)">
                <path d="M10,13.1440844 C10,14.3292181 10.3785494,15.4609053 10.9054527,16.3908951 L14.9095165,24.3210391 C15.1604938,24.7735597 15.6666667,25 16.1440844,25 C16.6213477,25 17.1027778,24.7735597 17.3786523,24.3210391 L21.3827675,16.3951132 C21.9136831,15.4649691 22.2880144,14.3539609 22.2880144,13.1481481 C22.2880144,9.74902263 19.5432099,7 16.1440844,7 C12.7448045,7 10,9.74480453 10,13.1440844 Z M16.1440844,14.9587963 C14.9095165,14.9587963 13.9012346,13.9506687 13.9012346,12.7161008 C13.9012346,11.4815329 14.9095165,10.473251 16.1440844,10.473251 C17.3786523,10.473251 18.3867798,11.4815329 18.3867798,12.7161008 C18.3867798,13.9546811 17.3786523,14.9587963 16.1440844,14.9587963 L16.1440844,14.9587963 Z" id="location-pin"></path>
            </g>
        </g>
    </g>
</svg>