<?xml version="1.0" encoding="UTF-8" standalone="no"?>
<svg width="32px" height="32px" viewBox="0 0 32 32" version="1.1" xmlns="http://www.w3.org/2000/svg" xmlns:xlink="http://www.w3.org/1999/xlink">
    <!-- Generator: Sketch 3.8.3 (29802) - http://www.bohemiancoding.com/sketch -->
    <title>32</title>
    <desc>Created with Sketch.</desc>
    <defs></defs>
    <g id="Page-1" stroke="none" stroke-width="1" fill="none" fill-rule="evenodd">
        <g id="21-Message-Boxes" transform="translate(-155.000000, -96.000000)" fill="#FFFFFF">
            <g id="Message-Boxes-32x32" transform="translate(155.000000, 96.000000)">
                <path d="M22.7574053,22.0846748 L22.0487922,22.0846748 L22.0487922,15.9091809 C22.0487922,13.5313127 20.5635638,11.5021348 18.4884345,10.649419 C18.8066978,10.2081472 18.9977087,9.66620693 18.9977087,9.07810716 C18.9977087,7.59092209 17.8052825,6.40626786 16.2989427,6.40626786 C14.7923376,6.40626786 13.5999114,7.58677352 13.5999114,9.07810716 C13.5999114,9.66620693 13.7865728,10.2081472 14.1091856,10.649419 C12.0170823,11.510537 10.548828,13.5606153 10.548828,15.9132769 L10.548828,22.0889809 L9.88684047,22.0889809 C9.39888991,22.0889809 9,22.4838307 9,22.9669032 C9,23.4500283 9.39888991,23.8448781 9.88684047,23.8448781 L12.5943588,23.8448781 C12.9931956,25.6010378 14.5462141,27 16.2989427,27 C18.0514591,27 19.6046367,25.6053439 20.0627766,23.8448781 L22.7149702,23.8448781 C23.2031329,23.8448781 23.6442457,23.4500283 23.6442457,22.9669032 C23.6401083,22.4795246 23.2454089,22.0846748 22.7574053,22.0846748 L22.7574053,22.0846748 Z M16.2989427,8.11605806 C16.8293814,8.11605806 17.2707064,8.55297119 17.2707064,9.07810716 C17.2707064,9.60324312 16.8293814,10.0401562 16.2989427,10.0401562 C15.768504,10.0401562 15.3271259,9.60324312 15.3271259,9.07810716 C15.3227763,8.55297119 15.768504,8.11605806 16.2989427,8.11605806 L16.2989427,8.11605806 Z M12.314181,15.9091809 C12.314181,13.7622675 14.0837246,11.9686131 16.2945931,11.9686131 C18.4629204,11.9686131 20.2749521,13.7204141 20.2749521,15.9091809 L20.2749521,22.0846748 L12.314181,22.0846748 L12.314181,15.9091809 Z M16.3411656,25.2818076 C15.5094908,25.2818076 14.7541991,24.6641952 14.4315863,23.836686 L18.2466075,23.836686 C17.9113703,24.6641952 17.1391046,25.2818076 16.3411656,25.2818076 L16.3411656,25.2818076 Z" id="alarm"></path>
            </g>
        </g>
    </g>
</svg>