<?xml version="1.0" encoding="UTF-8" standalone="no"?>
<svg width="32px" height="32px" viewBox="0 0 32 32" version="1.1" xmlns="http://www.w3.org/2000/svg" xmlns:xlink="http://www.w3.org/1999/xlink">
    <!-- Generator: Sketch 40.1 (33804) - http://www.bohemiancoding.com/sketch -->
    <title>32</title>
    <desc>Created with Sketch.</desc>
    <defs></defs>
    <g id="Page-1" stroke="none" stroke-width="1" fill="none" fill-rule="evenodd">
        <g id="05-Single-Image" transform="translate(-155.000000, -262.000000)" fill="#FFFFFF">
            <g id="Single-Image-32x32" transform="translate(160.000000, 269.000000)">
                <path d="M20,2 L2,2 L2,16 L20,16 L20,2 L20,2 Z M22,1.5 L22,0 L0,0 L0,1.5 L0,17 L0,18 L22,18 L22,17 L22,1.5 L22,1.5 Z" id="Combined-Shape"></path>
                <polygon id="Combined-Shape" transform="translate(6.187184, 14.187184) rotate(-315.000000) translate(-6.187184, -14.187184) " points="3.43718434 9.18718434 2.43718434 9.18718434 2.43718434 19.1871843 4.43718434 19.1871843 4.43718434 11.1871843 9.93718434 11.1871843 9.93718434 9.18718434"></polygon>
                <polygon id="Combined-Shape" transform="translate(15.187184, 11.187184) rotate(-315.000000) translate(-15.187184, -11.187184) " points="12.4371843 6.18718434 11.4371843 6.18718434 11.4371843 16.1871843 13.4371843 16.1871843 13.4371843 8.18718434 18.9371843 8.18718434 18.9371843 6.18718434"></polygon>
                <circle id="Oval-1" cx="5.5" cy="5.5" r="1.5"></circle>
            </g>
        </g>
    </g>
</svg>