<?xml version="1.0" encoding="UTF-8" standalone="no"?>
<svg width="32px" height="32px" viewBox="0 0 32 32" version="1.1" xmlns="http://www.w3.org/2000/svg" xmlns:xlink="http://www.w3.org/1999/xlink">
    <!-- Generator: Sketch 3.8.3 (29802) - http://www.bohemiancoding.com/sketch -->
    <title>32</title>
    <desc>Created with Sketch.</desc>
    <defs></defs>
    <g id="Page-1" stroke="none" stroke-width="1" fill="none" fill-rule="evenodd">
        <g id="13-Hover-Boxes" transform="translate(-155.000000, -96.000000)" fill="#FFFFFF">
            <g id="Hover-Boxes-32x32" transform="translate(155.000000, 96.000000)">
                <path d="M25,9 L7,9 L7,23 L25,23 L25,9 L25,9 Z M27,8.5 L27,7 L5,7 L5,8.5 L5,24 L5,25 L27,25 L27,24 L27,8.5 L27,8.5 Z" id="Combined-Shape"></path>
                <path d="M20,15 C20,16.9455472 18.6037597,18.5706784 16.7607645,18.9271687 L16.7607645,20.0050935 L13.8302352,18.3247742 L16.7607645,16.6444549 L16.7607645,17.6314325 C17.9024365,17.3008297 18.7397606,16.2466919 18.7397606,15 C18.7397606,13.4893405 17.5106595,12.2602394 16,12.2602394 C14.489288,12.2602394 13.2602394,13.4893405 13.2602394,15 C13.2602394,15.4069523 13.347196,15.7980991 13.5184835,16.1630435 L12.3778093,16.6988028 C12.1271792,16.1650914 12,15.5934152 12,15 C12,12.7943709 13.7943709,11 16,11 C18.2056291,11 20,12.7943709 20,15 L20,15 Z" id="Fill-1" transform="translate(16.000000, 15.502547) rotate(-180.000000) translate(-16.000000, -15.502547) "></path>
            </g>
        </g>
    </g>
</svg>