<?xml version="1.0" encoding="UTF-8" standalone="no"?>
<svg width="32px" height="32px" viewBox="0 0 32 32" version="1.1" xmlns="http://www.w3.org/2000/svg" xmlns:xlink="http://www.w3.org/1999/xlink">
    <!-- Generator: Sketch 3.8.3 (29802) - http://www.bohemiancoding.com/sketch -->
    <title>32</title>
    <desc>Created with Sketch.</desc>
    <defs></defs>
    <g id="Page-1" stroke="none" stroke-width="1" fill="none" fill-rule="evenodd">
        <g id="16-Misc" transform="translate(-155.000000, -96.000000)" fill="#FFFFFF">
            <g id="Misc-32x32" transform="translate(155.000000, 96.000000)">
                <path d="M7.05575404,10.7996528 L7,10.7996528 L7,24.0632224 L7,25.0106202 L23.5,25.0106202 L25,25.0106202 L25,10.7996528 L24.9665495,10.7996528 L21.0013122,7.01809692 L21,7.01940909 L21,7.01006154 L11,7.01006154 L11,7.04139392 L7.05575404,10.7996528 Z M9.7601589,10.7996528 L15,10.7996528 L15,8.90485719 L11.5886383,8.90485719 L9.7601589,10.7996528 Z M22.3359632,10.7996528 L17,10.7996528 L17,8.90485719 L20.4411675,8.90485719 L22.3359632,10.7996528 Z M23,23.1158245 L9,23.1158245 L9,12.6944485 L23,12.6944485 L23,23.1158245 Z" id="Combined-Shape"></path>
            </g>
        </g>
    </g>
</svg>