<svg id="Layer_1" data-name="Layer 1" xmlns="http://www.w3.org/2000/svg" xmlns:xlink="http://www.w3.org/1999/xlink" viewBox="0 0 20.81 20.81"><defs><style>.cls-1{fill:none;}.cls-2{clip-path:url(#clip-path);}.cls-3{fill:#ccc;}</style><clipPath id="clip-path"><polygon class="cls-1" points="48.51 21.92 36.41 25.14 12.14 21.13 0 21.92 0 0 48.51 0 48.51 21.92"/></clipPath></defs><g class="cls-2"><rect class="cls-3" width="0.87" height="0.87"/><rect class="cls-3" x="1.73" width="0.87" height="0.87"/><rect class="cls-3" x="3.47" width="0.87" height="0.87"/><rect class="cls-3" x="5.2" width="0.87" height="0.87"/><rect class="cls-3" x="6.94" width="0.87" height="0.87"/><rect class="cls-3" x="8.67" width="0.87" height="0.87"/><rect class="cls-3" x="10.4" width="0.87" height="0.87"/><rect class="cls-3" x="12.14" width="0.87" height="0.87"/><rect class="cls-3" x="13.87" width="0.87" height="0.87"/><rect class="cls-3" x="15.6" width="0.87" height="0.87"/><rect class="cls-3" x="17.34" width="0.87" height="0.87"/><rect class="cls-3" x="19.07" width="0.87" height="0.87"/><rect class="cls-3" x="20.8" width="0.87" height="0.87"/><rect class="cls-3" x="0.87" y="0.87" width="0.87" height="0.87"/><rect class="cls-3" x="2.6" y="0.87" width="0.87" height="0.87"/><rect class="cls-3" x="4.33" y="0.87" width="0.87" height="0.87"/><rect class="cls-3" x="6.07" y="0.87" width="0.87" height="0.87"/><rect class="cls-3" x="7.8" y="0.87" width="0.87" height="0.87"/><rect class="cls-3" x="9.54" y="0.87" width="0.87" height="0.87"/><rect class="cls-3" x="11.27" y="0.87" width="0.87" height="0.87"/><rect class="cls-3" x="13" y="0.87" width="0.87" height="0.87"/><rect class="cls-3" x="14.74" y="0.87" width="0.87" height="0.87"/><rect class="cls-3" x="16.47" y="0.87" width="0.87" height="0.87"/><rect class="cls-3" x="18.2" y="0.87" width="0.87" height="0.87"/><rect class="cls-3" x="19.94" y="0.87" width="0.87" height="0.87"/><rect class="cls-3" y="1.73" width="0.87" height="0.87"/><rect class="cls-3" x="1.73" y="1.73" width="0.87" height="0.87"/><rect class="cls-3" x="3.47" y="1.73" width="0.87" height="0.87"/><rect class="cls-3" x="5.2" y="1.73" width="0.87" height="0.87"/><rect class="cls-3" x="6.94" y="1.73" width="0.87" height="0.87"/><rect class="cls-3" x="8.67" y="1.73" width="0.87" height="0.87"/><rect class="cls-3" x="10.4" y="1.73" width="0.87" height="0.87"/><rect class="cls-3" x="12.14" y="1.73" width="0.87" height="0.87"/><rect class="cls-3" x="13.87" y="1.73" width="0.87" height="0.87"/><rect class="cls-3" x="15.6" y="1.73" width="0.87" height="0.87"/><rect class="cls-3" x="17.34" y="1.73" width="0.87" height="0.87"/><rect class="cls-3" x="19.07" y="1.73" width="0.87" height="0.87"/><rect class="cls-3" x="20.8" y="1.73" width="0.87" height="0.87"/><rect class="cls-3" x="0.87" y="2.6" width="0.87" height="0.87"/><rect class="cls-3" x="2.6" y="2.6" width="0.87" height="0.87"/><rect class="cls-3" x="4.33" y="2.6" width="0.87" height="0.87"/><rect class="cls-3" x="6.07" y="2.6" width="0.87" height="0.87"/><rect class="cls-3" x="7.8" y="2.6" width="0.87" height="0.87"/><rect class="cls-3" x="9.54" y="2.6" width="0.87" height="0.87"/><rect class="cls-3" x="11.27" y="2.6" width="0.87" height="0.87"/><rect class="cls-3" x="13" y="2.6" width="0.87" height="0.87"/><rect class="cls-3" x="14.74" y="2.6" width="0.87" height="0.87"/><rect class="cls-3" x="16.47" y="2.6" width="0.87" height="0.87"/><rect class="cls-3" x="18.2" y="2.6" width="0.87" height="0.87"/><rect class="cls-3" x="19.94" y="2.6" width="0.87" height="0.87"/><rect class="cls-3" y="3.47" width="0.87" height="0.87"/><rect class="cls-3" x="1.73" y="3.47" width="0.87" height="0.87"/><rect class="cls-3" x="3.47" y="3.47" width="0.87" height="0.87"/><rect class="cls-3" x="5.2" y="3.47" width="0.87" height="0.87"/><rect class="cls-3" x="6.94" y="3.47" width="0.87" height="0.87"/><rect class="cls-3" x="8.67" y="3.47" width="0.87" height="0.87"/><rect class="cls-3" x="10.4" y="3.47" width="0.87" height="0.87"/><rect class="cls-3" x="12.14" y="3.47" width="0.87" height="0.87"/><rect class="cls-3" x="13.87" y="3.47" width="0.87" height="0.87"/><rect class="cls-3" x="15.6" y="3.47" width="0.87" height="0.87"/><rect class="cls-3" x="17.34" y="3.47" width="0.87" height="0.87"/><rect class="cls-3" x="19.07" y="3.47" width="0.87" height="0.87"/><rect class="cls-3" x="20.8" y="3.47" width="0.87" height="0.87"/><rect class="cls-3" x="0.87" y="4.33" width="0.87" height="0.87"/><rect class="cls-3" x="2.6" y="4.33" width="0.87" height="0.87"/><rect class="cls-3" x="4.33" y="4.33" width="0.87" height="0.87"/><rect class="cls-3" x="6.07" y="4.33" width="0.87" height="0.87"/><rect class="cls-3" x="7.8" y="4.33" width="0.87" height="0.87"/><rect class="cls-3" x="9.54" y="4.33" width="0.87" height="0.87"/><rect class="cls-3" x="11.27" y="4.33" width="0.87" height="0.87"/><rect class="cls-3" x="13" y="4.33" width="0.87" height="0.87"/><rect class="cls-3" x="14.74" y="4.33" width="0.87" height="0.87"/><rect class="cls-3" x="16.47" y="4.33" width="0.87" height="0.87"/><rect class="cls-3" x="18.2" y="4.33" width="0.87" height="0.87"/><rect class="cls-3" x="19.94" y="4.33" width="0.87" height="0.87"/><rect class="cls-3" y="5.2" width="0.87" height="0.87"/><rect class="cls-3" x="1.73" y="5.2" width="0.87" height="0.87"/><rect class="cls-3" x="3.47" y="5.2" width="0.87" height="0.87"/><rect class="cls-3" x="5.2" y="5.2" width="0.87" height="0.87"/><rect class="cls-3" x="6.94" y="5.2" width="0.87" height="0.87"/><rect class="cls-3" x="8.67" y="5.2" width="0.87" height="0.87"/><rect class="cls-3" x="10.4" y="5.2" width="0.87" height="0.87"/><rect class="cls-3" x="12.14" y="5.2" width="0.87" height="0.87"/><rect class="cls-3" x="13.87" y="5.2" width="0.87" height="0.87"/><rect class="cls-3" x="15.6" y="5.2" width="0.87" height="0.87"/><rect class="cls-3" x="17.34" y="5.2" width="0.87" height="0.87"/><rect class="cls-3" x="19.07" y="5.2" width="0.87" height="0.87"/><rect class="cls-3" x="20.8" y="5.2" width="0.87" height="0.87"/><rect class="cls-3" x="0.87" y="6.07" width="0.87" height="0.87"/><rect class="cls-3" x="2.6" y="6.07" width="0.87" height="0.87"/><rect class="cls-3" x="4.33" y="6.07" width="0.87" height="0.87"/><rect class="cls-3" x="6.07" y="6.07" width="0.87" height="0.87"/><rect class="cls-3" x="7.8" y="6.07" width="0.87" height="0.87"/><rect class="cls-3" x="9.54" y="6.07" width="0.87" height="0.87"/><rect class="cls-3" x="11.27" y="6.07" width="0.87" height="0.87"/><rect class="cls-3" x="13" y="6.07" width="0.87" height="0.87"/><rect class="cls-3" x="14.74" y="6.07" width="0.87" height="0.87"/><rect class="cls-3" x="16.47" y="6.07" width="0.87" height="0.87"/><rect class="cls-3" x="18.2" y="6.07" width="0.87" height="0.87"/><rect class="cls-3" x="19.94" y="6.07" width="0.87" height="0.87"/><rect class="cls-3" y="6.94" width="0.87" height="0.87"/><rect class="cls-3" x="1.73" y="6.94" width="0.87" height="0.87"/><rect class="cls-3" x="3.47" y="6.94" width="0.87" height="0.87"/><rect class="cls-3" x="5.2" y="6.94" width="0.87" height="0.87"/><rect class="cls-3" x="6.94" y="6.94" width="0.87" height="0.87"/><rect class="cls-3" x="8.67" y="6.94" width="0.87" height="0.87"/><rect class="cls-3" x="10.4" y="6.94" width="0.87" height="0.87"/><rect class="cls-3" x="12.14" y="6.94" width="0.87" height="0.87"/><rect class="cls-3" x="13.87" y="6.94" width="0.87" height="0.87"/><rect class="cls-3" x="15.6" y="6.94" width="0.87" height="0.87"/><rect class="cls-3" x="17.34" y="6.94" width="0.87" height="0.87"/><rect class="cls-3" x="19.07" y="6.94" width="0.87" height="0.87"/><rect class="cls-3" x="20.8" y="6.94" width="0.87" height="0.87"/><rect class="cls-3" x="0.87" y="7.8" width="0.87" height="0.87"/><rect class="cls-3" x="2.6" y="7.8" width="0.87" height="0.87"/><rect class="cls-3" x="4.33" y="7.8" width="0.87" height="0.87"/><rect class="cls-3" x="6.07" y="7.8" width="0.87" height="0.87"/><rect class="cls-3" x="7.8" y="7.8" width="0.87" height="0.87"/><rect class="cls-3" x="9.54" y="7.8" width="0.87" height="0.87"/><rect class="cls-3" x="11.27" y="7.8" width="0.87" height="0.87"/><rect class="cls-3" x="13" y="7.8" width="0.87" height="0.87"/><rect class="cls-3" x="14.74" y="7.8" width="0.87" height="0.87"/><rect class="cls-3" x="16.47" y="7.8" width="0.87" height="0.87"/><rect class="cls-3" x="18.2" y="7.8" width="0.87" height="0.87"/><rect class="cls-3" x="19.94" y="7.8" width="0.87" height="0.87"/><rect class="cls-3" y="8.67" width="0.87" height="0.87"/><rect class="cls-3" x="1.73" y="8.67" width="0.87" height="0.87"/><rect class="cls-3" x="3.47" y="8.67" width="0.87" height="0.87"/><rect class="cls-3" x="5.2" y="8.67" width="0.87" height="0.87"/><rect class="cls-3" x="6.94" y="8.67" width="0.87" height="0.87"/><rect class="cls-3" x="8.67" y="8.67" width="0.87" height="0.87"/><rect class="cls-3" x="10.4" y="8.67" width="0.87" height="0.87"/><rect class="cls-3" x="12.14" y="8.67" width="0.87" height="0.87"/><rect class="cls-3" x="13.87" y="8.67" width="0.87" height="0.87"/><rect class="cls-3" x="15.6" y="8.67" width="0.87" height="0.87"/><rect class="cls-3" x="17.34" y="8.67" width="0.87" height="0.87"/><rect class="cls-3" x="19.07" y="8.67" width="0.87" height="0.87"/><rect class="cls-3" x="20.8" y="8.67" width="0.87" height="0.87"/><rect class="cls-3" x="0.87" y="9.54" width="0.87" height="0.87"/><rect class="cls-3" x="2.6" y="9.54" width="0.87" height="0.87"/><rect class="cls-3" x="4.33" y="9.54" width="0.87" height="0.87"/><rect class="cls-3" x="6.07" y="9.54" width="0.87" height="0.87"/><rect class="cls-3" x="7.8" y="9.54" width="0.87" height="0.87"/><rect class="cls-3" x="9.54" y="9.54" width="0.87" height="0.87"/><rect class="cls-3" x="11.27" y="9.54" width="0.87" height="0.87"/><rect class="cls-3" x="13" y="9.54" width="0.87" height="0.87"/><rect class="cls-3" x="14.74" y="9.54" width="0.87" height="0.87"/><rect class="cls-3" x="16.47" y="9.54" width="0.87" height="0.87"/><rect class="cls-3" x="18.2" y="9.54" width="0.87" height="0.87"/><rect class="cls-3" x="19.94" y="9.54" width="0.87" height="0.87"/><rect class="cls-3" y="10.4" width="0.87" height="0.87"/><rect class="cls-3" x="1.73" y="10.4" width="0.87" height="0.87"/><rect class="cls-3" x="3.47" y="10.4" width="0.87" height="0.87"/><rect class="cls-3" x="5.2" y="10.4" width="0.87" height="0.87"/><rect class="cls-3" x="6.94" y="10.4" width="0.87" height="0.87"/><rect class="cls-3" x="8.67" y="10.4" width="0.87" height="0.87"/><rect class="cls-3" x="10.4" y="10.4" width="0.87" height="0.87"/><rect class="cls-3" x="12.14" y="10.4" width="0.87" height="0.87"/><rect class="cls-3" x="13.87" y="10.4" width="0.87" height="0.87"/><rect class="cls-3" x="15.6" y="10.4" width="0.87" height="0.87"/><rect class="cls-3" x="17.34" y="10.4" width="0.87" height="0.87"/><rect class="cls-3" x="19.07" y="10.4" width="0.87" height="0.87"/><rect class="cls-3" x="20.8" y="10.4" width="0.87" height="0.87"/><rect class="cls-3" x="0.87" y="11.27" width="0.87" height="0.87"/><rect class="cls-3" x="2.6" y="11.27" width="0.87" height="0.87"/><rect class="cls-3" x="4.33" y="11.27" width="0.87" height="0.87"/><rect class="cls-3" x="6.07" y="11.27" width="0.87" height="0.87"/><rect class="cls-3" x="7.8" y="11.27" width="0.87" height="0.87"/><rect class="cls-3" x="9.54" y="11.27" width="0.87" height="0.87"/><rect class="cls-3" x="11.27" y="11.27" width="0.87" height="0.87"/><rect class="cls-3" x="13" y="11.27" width="0.87" height="0.87"/><rect class="cls-3" x="14.74" y="11.27" width="0.87" height="0.87"/><rect class="cls-3" x="16.47" y="11.27" width="0.87" height="0.87"/><rect class="cls-3" x="18.2" y="11.27" width="0.87" height="0.87"/><rect class="cls-3" x="19.94" y="11.27" width="0.87" height="0.87"/><rect class="cls-3" y="12.14" width="0.87" height="0.87"/><rect class="cls-3" x="1.73" y="12.14" width="0.87" height="0.87"/><rect class="cls-3" x="3.47" y="12.14" width="0.87" height="0.87"/><rect class="cls-3" x="5.2" y="12.14" width="0.87" height="0.87"/><rect class="cls-3" x="6.94" y="12.14" width="0.87" height="0.87"/><rect class="cls-3" x="8.67" y="12.14" width="0.87" height="0.87"/><rect class="cls-3" x="10.4" y="12.14" width="0.87" height="0.87"/><rect class="cls-3" x="12.14" y="12.14" width="0.87" height="0.87"/><rect class="cls-3" x="13.87" y="12.14" width="0.87" height="0.87"/><rect class="cls-3" x="15.6" y="12.14" width="0.87" height="0.87"/><rect class="cls-3" x="17.34" y="12.14" width="0.87" height="0.87"/><rect class="cls-3" x="19.07" y="12.14" width="0.87" height="0.87"/><rect class="cls-3" x="20.8" y="12.14" width="0.87" height="0.87"/><rect class="cls-3" x="0.87" y="13" width="0.87" height="0.87"/><rect class="cls-3" x="2.6" y="13" width="0.87" height="0.87"/><rect class="cls-3" x="4.33" y="13" width="0.87" height="0.87"/><rect class="cls-3" x="6.07" y="13" width="0.87" height="0.87"/><rect class="cls-3" x="7.8" y="13" width="0.87" height="0.87"/><rect class="cls-3" x="9.54" y="13" width="0.87" height="0.87"/><rect class="cls-3" x="11.27" y="13" width="0.87" height="0.87"/><rect class="cls-3" x="13" y="13" width="0.87" height="0.87"/><rect class="cls-3" x="14.74" y="13" width="0.87" height="0.87"/><rect class="cls-3" x="16.47" y="13" width="0.87" height="0.87"/><rect class="cls-3" x="18.2" y="13" width="0.87" height="0.87"/><rect class="cls-3" x="19.94" y="13" width="0.87" height="0.87"/><rect class="cls-3" y="13.87" width="0.87" height="0.87"/><rect class="cls-3" x="1.73" y="13.87" width="0.87" height="0.87"/><rect class="cls-3" x="3.47" y="13.87" width="0.87" height="0.87"/><rect class="cls-3" x="5.2" y="13.87" width="0.87" height="0.87"/><rect class="cls-3" x="6.94" y="13.87" width="0.87" height="0.87"/><rect class="cls-3" x="8.67" y="13.87" width="0.87" height="0.87"/><rect class="cls-3" x="10.4" y="13.87" width="0.87" height="0.87"/><rect class="cls-3" x="12.14" y="13.87" width="0.87" height="0.87"/><rect class="cls-3" x="13.87" y="13.87" width="0.87" height="0.87"/><rect class="cls-3" x="15.6" y="13.87" width="0.87" height="0.87"/><rect class="cls-3" x="17.34" y="13.87" width="0.87" height="0.87"/><rect class="cls-3" x="19.07" y="13.87" width="0.87" height="0.87"/><rect class="cls-3" x="20.8" y="13.87" width="0.87" height="0.87"/><rect class="cls-3" x="0.87" y="14.74" width="0.87" height="0.87"/><rect class="cls-3" x="2.6" y="14.74" width="0.87" height="0.87"/><rect class="cls-3" x="4.33" y="14.74" width="0.87" height="0.87"/><rect class="cls-3" x="6.07" y="14.74" width="0.87" height="0.87"/><rect class="cls-3" x="7.8" y="14.74" width="0.87" height="0.87"/><rect class="cls-3" x="9.54" y="14.74" width="0.87" height="0.87"/><rect class="cls-3" x="11.27" y="14.74" width="0.87" height="0.87"/><rect class="cls-3" x="13" y="14.74" width="0.87" height="0.87"/><rect class="cls-3" x="14.74" y="14.74" width="0.87" height="0.87"/><rect class="cls-3" x="16.47" y="14.74" width="0.87" height="0.87"/><rect class="cls-3" x="18.2" y="14.74" width="0.87" height="0.87"/><rect class="cls-3" x="19.94" y="14.74" width="0.87" height="0.87"/><rect class="cls-3" y="15.6" width="0.87" height="0.87"/><rect class="cls-3" x="1.73" y="15.6" width="0.87" height="0.87"/><rect class="cls-3" x="3.47" y="15.6" width="0.87" height="0.87"/><rect class="cls-3" x="5.2" y="15.6" width="0.87" height="0.87"/><rect class="cls-3" x="6.94" y="15.6" width="0.87" height="0.87"/><rect class="cls-3" x="8.67" y="15.6" width="0.87" height="0.87"/><rect class="cls-3" x="10.4" y="15.6" width="0.87" height="0.87"/><rect class="cls-3" x="12.14" y="15.6" width="0.87" height="0.87"/><rect class="cls-3" x="13.87" y="15.6" width="0.87" height="0.87"/><rect class="cls-3" x="15.6" y="15.6" width="0.87" height="0.87"/><rect class="cls-3" x="17.34" y="15.6" width="0.87" height="0.87"/><rect class="cls-3" x="19.07" y="15.6" width="0.87" height="0.87"/><rect class="cls-3" x="20.8" y="15.6" width="0.87" height="0.87"/><rect class="cls-3" x="0.87" y="16.47" width="0.87" height="0.87"/><rect class="cls-3" x="2.6" y="16.47" width="0.87" height="0.87"/><rect class="cls-3" x="4.33" y="16.47" width="0.87" height="0.87"/><rect class="cls-3" x="6.07" y="16.47" width="0.87" height="0.87"/><rect class="cls-3" x="7.8" y="16.47" width="0.87" height="0.87"/><rect class="cls-3" x="9.54" y="16.47" width="0.87" height="0.87"/><rect class="cls-3" x="11.27" y="16.47" width="0.87" height="0.87"/><rect class="cls-3" x="13" y="16.47" width="0.87" height="0.87"/><rect class="cls-3" x="14.74" y="16.47" width="0.87" height="0.87"/><rect class="cls-3" x="16.47" y="16.47" width="0.87" height="0.87"/><rect class="cls-3" x="18.2" y="16.47" width="0.87" height="0.87"/><rect class="cls-3" x="19.94" y="16.47" width="0.87" height="0.87"/><rect class="cls-3" y="17.34" width="0.87" height="0.87"/><rect class="cls-3" x="1.73" y="17.34" width="0.87" height="0.87"/><rect class="cls-3" x="3.47" y="17.34" width="0.87" height="0.87"/><rect class="cls-3" x="5.2" y="17.34" width="0.87" height="0.87"/><rect class="cls-3" x="6.94" y="17.34" width="0.87" height="0.87"/><rect class="cls-3" x="8.67" y="17.34" width="0.87" height="0.87"/><rect class="cls-3" x="10.4" y="17.34" width="0.87" height="0.87"/><rect class="cls-3" x="12.14" y="17.34" width="0.87" height="0.87"/><rect class="cls-3" x="13.87" y="17.34" width="0.87" height="0.87"/><rect class="cls-3" x="15.6" y="17.34" width="0.87" height="0.87"/><rect class="cls-3" x="17.34" y="17.34" width="0.87" height="0.87"/><rect class="cls-3" x="19.07" y="17.34" width="0.87" height="0.87"/><rect class="cls-3" x="20.8" y="17.34" width="0.87" height="0.87"/><rect class="cls-3" x="0.87" y="18.2" width="0.87" height="0.87"/><rect class="cls-3" x="2.6" y="18.2" width="0.87" height="0.87"/><rect class="cls-3" x="4.33" y="18.2" width="0.87" height="0.87"/><rect class="cls-3" x="6.07" y="18.2" width="0.87" height="0.87"/><rect class="cls-3" x="7.8" y="18.2" width="0.87" height="0.87"/><rect class="cls-3" x="9.54" y="18.2" width="0.87" height="0.87"/><rect class="cls-3" x="11.27" y="18.2" width="0.87" height="0.87"/><rect class="cls-3" x="13" y="18.2" width="0.87" height="0.87"/><rect class="cls-3" x="14.74" y="18.2" width="0.87" height="0.87"/><rect class="cls-3" x="16.47" y="18.2" width="0.87" height="0.87"/><rect class="cls-3" x="18.2" y="18.2" width="0.87" height="0.87"/><rect class="cls-3" x="19.94" y="18.2" width="0.87" height="0.87"/><rect class="cls-3" y="19.07" width="0.87" height="0.87"/><rect class="cls-3" x="1.73" y="19.07" width="0.87" height="0.87"/><rect class="cls-3" x="3.47" y="19.07" width="0.87" height="0.87"/><rect class="cls-3" x="5.2" y="19.07" width="0.87" height="0.87"/><rect class="cls-3" x="6.94" y="19.07" width="0.87" height="0.87"/><rect class="cls-3" x="8.67" y="19.07" width="0.87" height="0.87"/><rect class="cls-3" x="10.4" y="19.07" width="0.87" height="0.87"/><rect class="cls-3" x="12.14" y="19.07" width="0.87" height="0.87"/><rect class="cls-3" x="13.87" y="19.07" width="0.87" height="0.87"/><rect class="cls-3" x="15.6" y="19.07" width="0.87" height="0.87"/><rect class="cls-3" x="17.34" y="19.07" width="0.87" height="0.87"/><rect class="cls-3" x="19.07" y="19.07" width="0.87" height="0.87"/><rect class="cls-3" x="20.8" y="19.07" width="0.87" height="0.87"/><rect class="cls-3" x="0.87" y="19.94" width="0.87" height="0.87"/><rect class="cls-3" x="2.6" y="19.94" width="0.87" height="0.87"/><rect class="cls-3" x="4.33" y="19.94" width="0.87" height="0.87"/><rect class="cls-3" x="6.07" y="19.94" width="0.87" height="0.87"/><rect class="cls-3" x="7.8" y="19.94" width="0.87" height="0.87"/><rect class="cls-3" x="9.54" y="19.94" width="0.87" height="0.87"/><rect class="cls-3" x="11.27" y="19.94" width="0.87" height="0.87"/><rect class="cls-3" x="13" y="19.94" width="0.87" height="0.87"/><rect class="cls-3" x="14.74" y="19.94" width="0.87" height="0.87"/><rect class="cls-3" x="16.47" y="19.94" width="0.87" height="0.87"/><rect class="cls-3" x="18.2" y="19.94" width="0.87" height="0.87"/><rect class="cls-3" x="19.94" y="19.94" width="0.87" height="0.87"/><rect class="cls-3" y="20.8" width="0.87" height="0.87"/><rect class="cls-3" x="1.73" y="20.8" width="0.87" height="0.87"/><rect class="cls-3" x="3.47" y="20.8" width="0.87" height="0.87"/><rect class="cls-3" x="5.2" y="20.8" width="0.87" height="0.87"/><rect class="cls-3" x="6.94" y="20.8" width="0.87" height="0.87"/><rect class="cls-3" x="8.67" y="20.8" width="0.87" height="0.87"/><rect class="cls-3" x="10.4" y="20.8" width="0.87" height="0.87"/><rect class="cls-3" x="12.14" y="20.8" width="0.87" height="0.87"/><rect class="cls-3" x="13.87" y="20.8" width="0.87" height="0.87"/><rect class="cls-3" x="15.6" y="20.8" width="0.87" height="0.87"/><rect class="cls-3" x="17.34" y="20.8" width="0.87" height="0.87"/><rect class="cls-3" x="19.07" y="20.8" width="0.87" height="0.87"/><rect class="cls-3" x="20.8" y="20.8" width="0.87" height="0.87"/></g></svg>