<?xml version="1.0" encoding="utf-8"?><!DOCTYPE svg PUBLIC "-//W3C//DTD SVG 1.1//EN" "http://www.w3.org/Graphics/SVG/1.1/DTD/svg11.dtd"><svg version="1.1" id="at-nav-priority-tab" fill="#002157" stroke="currentColor" xmlns="http://www.w3.org/2000/svg" xmlns:xlink="http://www.w3.org/1999/xlink" x="0px" y="0px" width="200.754px" height="200.134px" viewBox="155.622 86.813 200.754 200.134" enable-background="new 155.622 86.813 200.754 200.134" xml:space="preserve" class="task-content at-cs-header-icons"><path d="M354.368,148.18l-40.283-56.789c-2.031-2.864-5.343-4.575-8.854-4.576c-0.002,0-0.002,0-0.002,0c-3.514,0-6.824,1.71-8.857,4.576l-40.284,56.788c-2.36,3.326-2.663,7.644-0.791,11.268c1.872,3.624,5.569,5.875,9.648,5.875h16.781v110.34c0,6.223,5.062,11.285,11.286,11.285h24.431c6.224,0,11.286-5.063,11.286-11.285v-110.34h16.782c4.079,0,7.775-2.251,9.647-5.875C357.029,155.823,356.728,151.505,354.368,148.18z M321.232,150.33c-4.141,0-7.496,3.355-7.496,7.496v114.131h-17.02v-114.13c0-4.141-3.354-7.496-7.495-7.496h-16.28l32.285-45.514l32.286,45.514L321.232,150.33L321.232,150.33z" class="task-content at-cs-header-icons" id="at-nav-priority-tab"/><path d="M247.056,208.44h-16.782V98.099c0-6.224-5.062-11.286-11.286-11.286h-24.431c-6.224,0-11.286,5.062-11.286,11.286v40.943c0,4.141,3.355,7.496,7.496,7.496c4.141,0,7.496-3.355,7.496-7.496v-37.237h17.019v114.13c0,4.141,3.355,7.496,7.496,7.496h16.279l-32.285,45.513l-32.284-45.513h16.279c4.141,0,7.496-3.355,7.496-7.496v-42.03c0-4.141-3.355-7.496-7.496-7.496c-4.141,0-7.496,3.355-7.496,7.496v34.534h-16.781c-4.08,0-7.777,2.252-9.649,5.876s-1.567,7.942,0.792,11.265l40.284,56.789c2.033,2.866,5.344,4.578,8.857,4.578h0.002c3.514-0.002,6.824-1.714,8.854-4.578l40.283-56.787c2.36-3.325,2.665-7.643,0.792-11.267C254.832,210.691,251.135,208.44,247.056,208.44L247.056,208.44z" class="task-content at-cs-header-icons" id="at-nav-priority-tab"/></svg>