<?xml version="1.0" encoding="UTF-8" standalone="no"?>
<svg width="32px" height="32px" viewBox="0 0 32 32" version="1.1" xmlns="http://www.w3.org/2000/svg" xmlns:xlink="http://www.w3.org/1999/xlink">
    <!-- Generator: Sketch 3.8.3 (29802) - http://www.bohemiancoding.com/sketch -->
    <title>32</title>
    <desc>Created with Sketch.</desc>
    <defs></defs>
    <g id="Page-1" stroke="none" stroke-width="1" fill="none" fill-rule="evenodd">
        <g id="11-Image-Galleries" transform="translate(-155.000000, -96.000000)" fill="#FFFFFF">
            <g id="Image-Galleries-32x32" transform="translate(155.000000, 96.000000)">
                <path d="M27,20 L27,21 L24,21 L24,24 L24,25 L5,25 L5,23.5 L5,10 L6,10 L9,10 L9,7 L10,7 L26,7 L27,7 L27,20 L27,20 Z M25,19 L11,19 L11,9 L25,9 L25,19 L25,19 Z M9,12 L7,12 L7,23 L22,23 L22,21 L9,21 L9,20 L9,12 L9,12 Z" id="Combined-Shape"></path>
                <polygon id="Combined-Shape" transform="translate(14.687184, 17.000000) rotate(-315.000000) translate(-14.687184, -17.000000) " points="11.6442911 12 11.6442911 22 13.6442911 22 13.6442911 14 17.7300776 14 17.7300776 12 12.6442911 12"></polygon>
                <polygon id="Combined-Shape" transform="translate(21.687184, 14.687184) rotate(-315.000000) translate(-21.687184, -14.687184) " points="17.9371843 11.8085047 17.9371843 17.565864 19.9371843 17.565864 19.9371843 13.8085047 25.4371843 13.8085047 25.4371843 11.8085047 18.9371843 11.8085047"></polygon>
            </g>
        </g>
    </g>
</svg>