<?xml version="1.0" encoding="UTF-8"?>
<svg width="36px" height="6px" viewBox="0 0 36 6" version="1.1" xmlns="http://www.w3.org/2000/svg" xmlns:xlink="http://www.w3.org/1999/xlink">
    <!-- Generator: Sketch 58 (84663) - https://sketch.com -->
    <title>Combined Shape</title>
    <desc>Created with Sketch.</desc>
    <g id="Page-1" stroke="none" stroke-width="1" fill="none" fill-rule="evenodd">
        <g id="Laptop" transform="translate(-210.000000, -57.000000)" fill="#DEDEDE">
            <g id="Group-3" transform="translate(195.000000, 42.000000)">
                <path d="M18,15 C19.6568542,15 21,16.3431458 21,18 C21,19.6568542 19.6568542,21 18,21 C16.3431458,21 15,19.6568542 15,18 C15,16.3431458 16.3431458,15 18,15 Z M33,15 C34.6568542,15 36,16.3431458 36,18 C36,19.6568542 34.6568542,21 33,21 C31.3431458,21 30,19.6568542 30,18 C30,16.3431458 31.3431458,15 33,15 Z M48,15 C49.6568542,15 51,16.3431458 51,18 C51,19.6568542 49.6568542,21 48,21 C46.3431458,21 45,19.6568542 45,18 C45,16.3431458 46.3431458,15 48,15 Z" id="Combined-Shape"></path>
            </g>
        </g>
    </g>
</svg>