<?xml version="1.0" encoding="UTF-8" standalone="no"?>
<svg width="32px" height="32px" viewBox="0 0 32 32" version="1.1" xmlns="http://www.w3.org/2000/svg" xmlns:xlink="http://www.w3.org/1999/xlink">
    <!-- Generator: Sketch 3.8.3 (29802) - http://www.bohemiancoding.com/sketch -->
    <title>32</title>
    <desc>Created with Sketch.</desc>
    <defs></defs>
    <g id="Page-1" stroke="none" stroke-width="1" fill="none" fill-rule="evenodd">
        <g id="09-Icon-Element" transform="translate(-155.000000, -96.000000)">
            <g id="Icon-Element-32x32" transform="translate(155.000000, 96.000000)">
                <circle id="Oval-7" stroke="#FFFFFF" stroke-width="2" cx="16" cy="16" r="4"></circle>
                <path d="M15,7.99895656 C15,7.44724809 15.4438648,7 16,7 C16.5522847,7 17,7.44266033 17,7.99895656 L17,9.00104344 C17,9.55275191 16.5561352,10 16,10 C15.4477153,10 15,9.55733967 15,9.00104344 L15,7.99895656 L15,7.99895656 L15,7.99895656 Z M15,22.9989566 C15,22.4472481 15.4438648,22 16,22 C16.5522847,22 17,22.4426603 17,22.9989566 L17,24.0010434 C17,24.5527519 16.5561352,25 16,25 C15.4477153,25 15,24.5573397 15,24.0010434 L15,22.9989566 L15,22.9989566 L15,22.9989566 Z M24.0010434,15 C24.5527519,15 25,15.4438648 25,16 C25,16.5522847 24.5573397,17 24.0010434,17 L22.9989566,17 C22.4472481,17 22,16.5561352 22,16 C22,15.4477153 22.4426603,15 22.9989566,15 L24.0010434,15 L24.0010434,15 L24.0010434,15 Z M9.00104344,15 C9.55275191,15 10,15.4438648 10,16 C10,16.5522847 9.55733967,17 9.00104344,17 L7.99895656,17 C7.44724809,17 7,16.5561352 7,16 C7,15.4477153 7.44266033,15 7.99895656,15 L9.00104344,15 L9.00104344,15 Z M20.9504853,9.63530115 C21.3406021,9.24518434 21.9707141,9.24279201 22.363961,9.63603897 C22.7544853,10.0265633 22.7580597,10.6561539 22.3646989,11.0495147 L21.6561164,11.7580971 C21.2659996,12.1482139 20.6358876,12.1506063 20.2426407,11.7573593 C19.8521164,11.366835 19.848542,10.7372444 20.2419029,10.3438836 L20.9504853,9.63530115 L20.9504853,9.63530115 Z M10.3438836,20.2419029 C10.7340004,19.8517861 11.3641124,19.8493937 11.7573593,20.2426407 C12.1478836,20.633165 12.151458,21.2627556 11.7580971,21.6561164 L11.0495147,22.3646989 C10.6593979,22.7548157 10.0292859,22.757208 9.63603897,22.363961 C9.24551468,21.9734367 9.24194031,21.3438461 9.63530115,20.9504853 L10.3438836,20.2419029 L10.3438836,20.2419029 Z M22.3646989,20.9504853 C22.7548157,21.3406021 22.757208,21.9707141 22.363961,22.363961 C21.9734367,22.7544853 21.3438461,22.7580597 20.9504853,22.3646989 L20.2419029,21.6561164 C19.8517861,21.2659996 19.8493937,20.6358876 20.2426407,20.2426407 C20.633165,19.8521164 21.2627556,19.848542 21.6561164,20.2419029 L22.3646989,20.9504853 L22.3646989,20.9504853 Z M11.7580971,10.3438836 C12.1482139,10.7340004 12.1506063,11.3641124 11.7573593,11.7573593 C11.366835,12.1478836 10.7372444,12.151458 10.3438836,11.7580971 L9.63530115,11.0495147 C9.24518434,10.6593979 9.24279201,10.0292859 9.63603897,9.63603897 C10.0265633,9.24551468 10.6561539,9.24194031 11.0495147,9.63530115 L11.7580971,10.3438836 L11.7580971,10.3438836 Z" id="Combined-Shape" fill="#FFFFFF"></path>
            </g>
        </g>
    </g>
</svg>