<?xml version="1.0" encoding="UTF-8" standalone="no"?>
<svg width="32px" height="32px" viewBox="0 0 32 32" version="1.1" xmlns="http://www.w3.org/2000/svg" xmlns:xlink="http://www.w3.org/1999/xlink">
    <!-- Generator: Sketch 3.8.3 (29802) - http://www.bohemiancoding.com/sketch -->
    <title>32</title>
    <desc>Created with Sketch.</desc>
    <defs></defs>
    <g id="Page-1" stroke="none" stroke-width="1" fill="none" fill-rule="evenodd">
        <g id="12-Image-Sliders" transform="translate(-155.000000, -96.000000)" fill="#FFFFFF">
            <g id="Image-Sliders-32x32" transform="translate(155.000000, 96.000000)">
                <rect id="Rectangle-310" fill-opacity="0.302338089" x="15" y="25" width="2" height="2"></rect>
                <rect id="Rectangle-310" fill-opacity="0.302338089" x="19" y="25" width="2" height="2"></rect>
                <rect id="Rectangle-310" x="11" y="25" width="2" height="2"></rect>
                <path d="M25,7 L7,7 L7,21 L25,21 L25,7 L25,7 Z M27,6.5 L27,5 L5,5 L5,6.5 L5,22 L5,23 L27,23 L27,22 L27,6.5 L27,6.5 Z" id="Combined-Shape"></path>
                <polygon id="Combined-Shape" transform="translate(11.187184, 19.187184) rotate(-315.000000) translate(-11.187184, -19.187184) " points="8.43718434 14.1871843 7.43718434 14.1871843 7.43718434 24.1871843 9.43718434 24.1871843 9.43718434 16.1871843 14.9371843 16.1871843 14.9371843 14.1871843"></polygon>
                <polygon id="Combined-Shape" transform="translate(20.187184, 16.187184) rotate(-315.000000) translate(-20.187184, -16.187184) " points="17.4371843 11.1871843 16.4371843 11.1871843 16.4371843 21.1871843 18.4371843 21.1871843 18.4371843 13.1871843 23.9371843 13.1871843 23.9371843 11.1871843"></polygon>
                <circle id="Oval-1" cx="10.5" cy="10.5" r="1.5"></circle>
            </g>
        </g>
    </g>
</svg>