<?xml version="1.0" encoding="UTF-8" standalone="no"?>
<svg width="32px" height="32px" viewBox="0 0 32 32" version="1.1" xmlns="http://www.w3.org/2000/svg" xmlns:xlink="http://www.w3.org/1999/xlink">
    <!-- Generator: Sketch 3.8.3 (29802) - http://www.bohemiancoding.com/sketch -->
    <title>32</title>
    <desc>Created with Sketch.</desc>
    <defs>
        <polygon id="path-1" points="0.0116129032 0.0361026606 0.0116129032 17.8087021 17.9789032 17.8087021 17.9789032 0.0361026606 0.0116129032 0.0361026606"></polygon>
    </defs>
    <g id="Page-1" stroke="none" stroke-width="1" fill="none" fill-rule="evenodd">
        <g id="10-Pricing-Tables" transform="translate(-155.000000, -96.000000)">
            <g id="Pricing-Tables-32x32" transform="translate(155.000000, 96.000000)">
                <g id="tag" transform="translate(16.000000, 16.000000) scale(-1, 1) translate(-16.000000, -16.000000) translate(7.000000, 7.000000)">
                    <g id="Group-3">
                        <mask id="mask-2" fill="white">
                            <use xlink:href="#path-1"></use>
                        </mask>
                        <g id="Clip-2"></g>
                        <path d="M17.7778065,9.21485106 L8.68858065,0.222319149 C8.54941935,0.0846382979 8.34832258,0.0233617021 8.16232258,0.0382978723 L1.3496129,0.804255319 C1.05541935,0.834893617 0.807483871,1.06448936 0.776516129,1.37125532 L0.00232258065,8.11148936 C-0.0127741935,8.31044681 0.0491612903,8.49446809 0.188322581,8.63214894 L9.27754839,17.6246809 C9.40064516,17.747234 9.57154839,17.8087021 9.74167742,17.8087021 C9.91180645,17.8087021 10.0668387,17.747234 10.2058065,17.6246809 L17.7936774,10.1182979 C17.9167742,9.99574468 17.9789032,9.8423617 17.9789032,9.65910638 C17.9636129,9.5057234 17.9016774,9.3366383 17.7778065,9.21485106 L17.7778065,9.21485106 Z M1.33374194,7.94317021 L2.01483871,2.02940426 L7.99219355,1.35555319 L14.169871,7.4682766 L7.512,14.0551277 L1.33374194,7.94317021 Z M9.74167742,16.2608936 L8.44122581,14.9744681 L15.0990968,8.38742553 L16.3993548,9.67404255 L9.74167742,16.2608936 Z" id="Fill-1" fill="#FFFFFF" mask="url(#mask-2)"></path>
                    </g>
                    <path d="M7.46516129,3.97493617 C7.00103226,3.51574468 6.38187097,3.25551064 5.71567742,3.25551064 C5.05045161,3.25551064 4.4463871,3.51574468 3.96619355,3.97493617 C3.006,4.92491489 3.006,6.47253191 3.96619355,7.42174468 C4.43051613,7.88189362 5.05045161,8.14212766 5.71567742,8.14212766 C6.38187097,8.14212766 6.98593548,7.88189362 7.46516129,7.42174468 C7.93025806,6.96255319 8.19329032,6.34997872 8.19329032,5.69087234 C8.19329032,5.04765957 7.93025806,4.43508511 7.46516129,3.97493617 L7.46516129,3.97493617 Z M6.552,6.51829787 C6.11864516,6.94761702 5.34445161,6.94761702 4.89541935,6.51829787 C4.4463871,6.07385106 4.4463871,5.33853191 4.89541935,4.87934043 C5.1116129,4.66468085 5.40658065,4.54193617 5.71567742,4.54193617 C6.02574194,4.54193617 6.31974194,4.66468085 6.53670968,4.87934043 C6.75309677,5.09323404 6.87696774,5.38506383 6.87696774,5.69087234 C6.89283871,6.01257447 6.76896774,6.28851064 6.552,6.51829787 L6.552,6.51829787 Z" id="Fill-4" fill="#FFFFFF"></path>
                </g>
            </g>
        </g>
    </g>
</svg>