<?xml version="1.0" encoding="UTF-8" standalone="no"?>
<svg width="32px" height="32px" viewBox="0 0 32 32" version="1.1" xmlns="http://www.w3.org/2000/svg" xmlns:xlink="http://www.w3.org/1999/xlink">
    <!-- Generator: Sketch 3.8.3 (29802) - http://www.bohemiancoding.com/sketch -->
    <title>32</title>
    <desc>Created with Sketch.</desc>
    <defs></defs>
    <g id="Page-1" stroke="none" stroke-width="1" fill="none" fill-rule="evenodd">
        <g id="19-Social" transform="translate(-155.000000, -336.000000)" fill="#FFFFFF">
            <g id="Social-32x32" transform="translate(155.000000, 336.000000)">
                <path d="M20.9620874,18.7894335 C20.0731112,18.7894335 19.2775541,19.1806984 18.7211499,19.8016022 L13.8954928,17.4284123 C14.0109588,17.0998109 14.0767258,16.7479018 14.0767258,16.3791804 C14.0767258,16.0104591 14.0109588,15.6596962 13.8954928,15.3299485 L18.7211499,12.9567586 C19.2775541,13.5791908 20.0742322,13.9700736 20.9620874,13.9700736 C22.6391471,13.9700736 23.9993293,12.5803954 23.9993293,10.8640262 C23.9993293,9.14918536 22.6391471,7.75797872 20.9620874,7.75797872 C19.284654,7.75797872 17.9244718,9.14918536 17.9244718,10.8640262 C17.9244718,11.0298552 17.9405399,11.1895708 17.9637079,11.3462296 L12.8271519,13.8714932 C12.3249308,13.4970404 11.7076174,13.273133 11.0376156,13.273133 C9.36055582,13.273133 8,14.6628112 8,16.377652 C8,18.0955496 9.36055582,19.4852279 11.0376156,19.4852279 C11.7076174,19.4852279 12.3249308,19.2613204 12.8271519,18.8849572 L17.9637079,21.4121312 C17.9405399,21.56879 17.9229771,21.7300339 17.9229771,21.8939526 C17.9229771,23.6091755 19.2831593,25 20.9620874,25 C22.6391471,25 23.9993293,23.6091755 23.9993293,21.8939526 C23.9993293,20.1791117 22.6391471,18.7894335 20.9620874,18.7894335 L20.9620874,18.7894335 Z M20.9620874,9.59241516 C21.6477836,9.59241516 22.2056825,10.1640288 22.2056825,10.8655545 C22.2056825,11.5670803 21.6477836,12.1371656 20.9620874,12.1371656 C20.4890131,12.1371656 20.1837194,11.8761949 20.0450855,11.7206824 L19.7939749,11.4402249 L19.7356814,11.061187 C19.7240974,10.980565 19.7166239,10.9148448 19.7166239,10.8655545 C19.7166239,10.1640288 20.2760175,9.59241516 20.9620874,9.59241516 L20.9620874,9.59241516 Z M12.206849,16.8090369 L12.0797991,17.1716447 L11.7674056,17.4058687 C11.6171877,17.5178225 11.3690665,17.6523198 11.0376156,17.6523198 C10.3515457,17.6523198 9.79402046,17.0807062 9.79402046,16.3791804 C9.79402046,15.6776546 10.3515457,15.1075694 11.0376156,15.1075694 C11.3690665,15.1075694 11.6186824,15.2416846 11.7689003,15.3536384 L12.0797991,15.586334 L12.206849,15.9493239 C12.2580427,16.0926094 12.2827054,16.2389517 12.2827054,16.3791804 C12.2827054,16.5239943 12.2580427,16.664223 12.206849,16.8090369 L12.206849,16.8090369 Z M20.9620874,23.1670919 C20.2745228,23.1670919 19.7166239,22.5954783 19.7166239,21.8939526 C19.7166239,21.8446623 19.7226027,21.7793242 19.7356814,21.6941171 L19.7928539,21.322339 L20.0450855,21.0388247 C20.2846121,20.7702122 20.6100842,20.6223415 20.9620874,20.6223415 C21.6477836,20.6223415 22.2056825,21.1939551 22.2056825,21.8939526 C22.2056825,22.5954783 21.6477836,23.1670919 20.9620874,23.1670919 L20.9620874,23.1670919 Z" id="share"></path>
            </g>
        </g>
    </g>
</svg>