<?xml version="1.0" encoding="UTF-8" standalone="no"?>
<svg width="32px" height="32px" viewBox="0 0 32 32" version="1.1" xmlns="http://www.w3.org/2000/svg" xmlns:xlink="http://www.w3.org/1999/xlink">
    <!-- Generator: Sketch 3.8.3 (29802) - http://www.bohemiancoding.com/sketch -->
    <title>32</title>
    <desc>Created with Sketch.</desc>
    <defs></defs>
    <g id="Page-1" stroke="none" stroke-width="1" fill="none" fill-rule="evenodd">
        <g id="06-Text-Block" transform="translate(-155.000000, -96.000000)" fill="#FFFFFF">
            <g id="Text-Block-32x32" transform="translate(155.000000, 96.000000)">
                <polygon id="Rectangle-182" transform="translate(16.000000, 8.000000) rotate(-270.000000) translate(-16.000000, -8.000000) " points="15 -3 17 -3 17 19 15 19"></polygon>
                <rect id="Rectangle-182" transform="translate(12.000000, 12.000000) rotate(-270.000000) translate(-12.000000, -12.000000) " x="11" y="5" width="2" height="14"></rect>
                <polygon id="Rectangle-182" transform="translate(16.000000, 16.000000) rotate(-270.000000) translate(-16.000000, -16.000000) " points="15 5 17 5 17 27 15 27"></polygon>
                <polygon id="Rectangle-182" transform="translate(12.000000, 20.000000) rotate(-270.000000) translate(-12.000000, -20.000000) " points="11 13 13 13 13 27 11 27"></polygon>
                <polygon id="Rectangle-182" transform="translate(10.000000, 24.000000) rotate(-270.000000) translate(-10.000000, -24.000000) " points="9 19 11 19 11 29 9 29"></polygon>
            </g>
        </g>
    </g>
</svg>