<?xml version="1.0" encoding="UTF-8" standalone="no"?>
<svg width="32px" height="32px" viewBox="0 0 32 32" version="1.1" xmlns="http://www.w3.org/2000/svg" xmlns:xlink="http://www.w3.org/1999/xlink">
    <!-- Generator: Sketch 3.8.3 (29802) - http://www.bohemiancoding.com/sketch -->
    <title>32</title>
    <desc>Created with Sketch.</desc>
    <defs></defs>
    <g id="Page-1" stroke="none" stroke-width="1" fill="none" fill-rule="evenodd">
        <g id="25-WordPress" transform="translate(-155.000000, -96.000000)" fill="#FFFFFF">
            <g id="WordPress-32x32" transform="translate(155.000000, 96.000000)">
                <path d="M7,16.0007722 C7,19.5622388 9.07042789,22.6431986 12.0732861,24.0992423 L7.77978057,12.337024 C7.27972909,13.4571764 7,14.6950607 7,16.0007722 L7,16.0007722 Z M22.0770968,15.5462993 C22.0770968,14.4340266 21.676623,13.6626665 21.3344744,13.0639643 C20.8787655,12.3222689 20.4517943,11.6952153 20.4517943,10.9528247 C20.4517943,10.1253797 21.0773801,9.35564187 21.9639228,9.35564187 L22.0794916,9.36344431 C20.4780599,7.89689444 18.3448262,7 16.0019309,7 C12.9110056,7 10.1854044,8.55894313 8.5658958,10.9323529 C9.24208159,10.9450222 11.4597516,10.9531337 11.4597516,10.9531337 C11.9438119,10.9260183 12.0011328,11.6372764 11.5162227,11.6958334 C11.5162227,11.6958334 11.0294586,11.7525362 10.4866095,11.7811967 L13.764948,21.5296899 L15.7345621,15.6229332 L14.3313588,11.7811967 C13.8470667,11.7519182 13.388036,11.6958334 13.388036,11.6958334 C12.9021989,11.6665549 12.9598288,10.9260183 13.4459749,10.9531337 L18.2157383,10.9531337 C18.6991034,10.9260183 18.7570423,11.6372764 18.2721322,11.6958334 C18.2721322,11.6958334 17.7853681,11.7525362 17.242519,11.7811967 L20.4955189,21.4549101 L21.3941901,18.4571505 C21.8480449,17.2866299 22.0770968,16.3170414 22.0770968,15.5462993 L22.0770968,15.5462993 Z M16.1594475,16.7883552 L13.4577945,24.6360656 C14.2640724,24.8736152 15.1160063,25.0018533 16.0013902,25.0018533 C17.0484623,25.0018533 18.0542819,24.8204659 18.990034,24.4909093 L18.9263785,24.3675381 L16.1594475,16.7883552 Z M23.8982328,11.681619 C23.9377858,11.9697686 23.9601116,12.2769993 23.9601116,12.6089507 C23.9601116,13.52145 23.7886897,14.5475096 23.2745011,15.8321313 L20.5260333,23.7796512 C23.201189,22.2207853 24.9999993,19.3213674 24.9999993,16.0007722 C25.0006173,14.4358034 24.6010705,12.9643866 23.8982328,11.681619 L23.8982328,11.681619 Z" id="wordpress"></path>
            </g>
        </g>
    </g>
</svg>