<?xml version="1.0" encoding="utf-8"?>
<!DOCTYPE svg PUBLIC "-//W3C//DTD SVG 1.1//EN" "http://www.w3.org/Graphics/SVG/1.1/DTD/svg11.dtd">
<svg version="1.1" xmlns="http://www.w3.org/2000/svg" xmlns:xlink="http://www.w3.org/1999/xlink" width="512" height="512" viewBox="0 0 512 512">
<path fill="#fff" d="M293.582 360.73c19.375 0 34.434-15.059 34.434-34.434s-15.059-34.434-34.434-34.434h-80.714v68.868l80.714-0zM212.869 154.125v68.868h68.869c19.375 0 34.434-15.059 34.434-34.434s-15.059-34.434-34.434-34.434l-68.868-0zM341.997 252.033c30.142 13.98 49.493 44.121 49.493 78.556 0 48.414-36.592 87.165-85.007 87.165h-162.483v-321.753h144.188c51.651 0 91.457 40.885 91.457 92.536 0 23.668-15.059 48.415-37.671 63.496h0.023z"></path>
</svg>
